<svg width="24" height="21" viewBox="0 0 24 21" fill="none" xmlns="http://www.w3.org/2000/svg">
<path d="M3.168 6.16C2.656 6.672 2.312 7.272 2.136 7.96C1.96 8.632 1.96 9.312 2.136 10C2.312 10.688 2.656 11.288 3.168 11.8C3.264 11.896 3.312 12.016 3.312 12.16C3.312 12.288 3.264 12.408 3.168 12.52C3.072 12.616 2.952 12.664 2.808 12.664C2.68 12.664 2.568 12.616 2.472 12.52C1.832 11.88 1.392 11.128 1.152 10.264C0.928 9.4 0.928 8.544 1.152 7.696C1.392 6.832 1.832 6.08 2.472 5.44C2.568 5.344 2.68 5.296 2.808 5.296C2.952 5.296 3.072 5.352 3.168 5.464C3.264 5.56 3.312 5.68 3.312 5.824C3.312 5.952 3.264 6.064 3.168 6.16ZM4.704 11.224C4.608 11.32 4.488 11.368 4.344 11.368C4.216 11.368 4.104 11.32 4.008 11.224C3.4 10.616 3.096 9.88 3.096 9.016C3.096 8.6 3.168 8.208 3.312 7.84C3.472 7.456 3.704 7.12 4.008 6.832C4.104 6.736 4.216 6.688 4.344 6.688C4.488 6.688 4.608 6.736 4.704 6.832C4.8 6.928 4.848 7.048 4.848 7.192C4.848 7.32 4.8 7.44 4.704 7.552C4.304 7.952 4.104 8.448 4.104 9.04C4.104 9.616 4.304 10.104 4.704 10.504C4.8 10.6 4.848 10.72 4.848 10.864C4.848 10.992 4.8 11.112 4.704 11.224ZM21.552 5.704C22.192 6.344 22.624 7.096 22.848 7.96C23.072 8.808 23.072 9.664 22.848 10.528C22.624 11.376 22.192 12.12 21.552 12.76C21.456 12.872 21.336 12.928 21.192 12.928C21.048 12.928 20.928 12.88 20.832 12.784C20.736 12.672 20.688 12.552 20.688 12.424C20.688 12.28 20.736 12.16 20.832 12.064C21.344 11.552 21.688 10.952 21.864 10.264C22.04 9.576 22.04 8.896 21.864 8.224C21.688 7.536 21.344 6.936 20.832 6.424C20.736 6.328 20.688 6.208 20.688 6.064C20.688 5.92 20.736 5.8 20.832 5.704C20.928 5.608 21.04 5.56 21.168 5.56C21.312 5.56 21.44 5.608 21.552 5.704ZM19.992 7.048H20.016C20.416 7.448 20.68 7.912 20.808 8.44C20.952 8.968 20.952 9.504 20.808 10.048C20.68 10.576 20.416 11.04 20.016 11.44C19.904 11.536 19.776 11.584 19.632 11.584C19.504 11.584 19.392 11.536 19.296 11.44C19.2 11.344 19.152 11.224 19.152 11.08C19.152 10.936 19.2 10.816 19.296 10.72C19.712 10.304 19.92 9.808 19.92 9.232C19.92 8.656 19.712 8.168 19.296 7.768C19.2 7.656 19.152 7.536 19.152 7.408C19.152 7.264 19.2 7.144 19.296 7.048C19.392 6.952 19.504 6.904 19.632 6.904C19.776 6.904 19.896 6.952 19.992 7.048ZM17.856 9.544C17.872 10.744 18.016 11.8 18.288 12.712C18.48 13.352 18.72 13.888 19.008 14.32C19.504 15.04 19.752 15.792 19.752 16.576V17.824C19.752 18.032 19.68 18.208 19.536 18.352C19.392 18.496 19.216 18.568 19.008 18.568H14.592C14.464 19.192 14.152 19.704 13.656 20.104C13.176 20.504 12.616 20.704 11.976 20.704C11.336 20.704 10.776 20.496 10.296 20.08C9.816 19.68 9.512 19.176 9.384 18.568H4.968C4.76 18.568 4.584 18.496 4.44 18.352C4.296 18.208 4.224 18.032 4.224 17.824V16.576C4.224 15.792 4.472 15.04 4.968 14.32C5.256 13.888 5.496 13.352 5.688 12.712C5.96 11.8 6.104 10.744 6.12 9.544V9.496C6.12 8.232 6.48 7.096 7.2 6.088C7.936 5.08 8.88 4.368 10.032 3.952C9.76 3.552 9.624 3.104 9.624 2.608C9.624 1.952 9.856 1.4 10.32 0.951999C10.784 0.487999 11.336 0.256 11.976 0.256C12.632 0.256 13.192 0.487999 13.656 0.951999C14.12 1.4 14.352 1.952 14.352 2.608C14.352 3.12 14.208 3.568 13.92 3.952C15.088 4.368 16.032 5.08 16.752 6.088C17.488 7.096 17.856 8.232 17.856 9.496C17.856 9.512 17.856 9.528 17.856 9.544ZM11.976 1.744C11.736 1.744 11.528 1.832 11.352 2.008C11.192 2.168 11.112 2.368 11.112 2.608C11.112 2.848 11.192 3.056 11.352 3.232C11.528 3.408 11.736 3.496 11.976 3.496C12.216 3.496 12.424 3.408 12.6 3.232C12.776 3.056 12.864 2.848 12.864 2.608C12.864 2.368 12.776 2.168 12.6 2.008C12.424 1.832 12.216 1.744 11.976 1.744ZM11.976 19.696C12.344 19.696 12.664 19.592 12.936 19.384C13.224 19.176 13.424 18.904 13.536 18.568H10.416C10.544 18.904 10.744 19.176 11.016 19.384C11.304 19.592 11.624 19.696 11.976 19.696ZM18.24 17.08V16.576C18.24 16.112 18.088 15.64 17.784 15.16C17.384 14.6 17.064 13.904 16.824 13.072C16.504 12.016 16.344 10.8 16.344 9.424V9.4C16.328 8.616 16.12 7.904 15.72 7.264C15.336 6.608 14.808 6.088 14.136 5.704C13.48 5.32 12.76 5.128 11.976 5.128C11.192 5.128 10.472 5.32 9.816 5.704C9.16 6.088 8.632 6.608 8.232 7.264C7.848 7.904 7.648 8.616 7.632 9.4V9.424C7.632 10.8 7.472 12.016 7.152 13.072C6.912 13.888 6.592 14.584 6.192 15.16C5.888 15.608 5.736 16.08 5.736 16.576V17.08H18.24Z" fill="#212121"/>
</svg>
