<svg width="23" height="21" viewBox="0 0 23 21" fill="none" xmlns="http://www.w3.org/2000/svg">
<path d="M21.896 4.576C22.024 4.832 22.032 5.08 21.92 5.32L17.912 12.928C17.576 13.552 17.104 14.048 16.496 14.416C15.904 14.784 15.256 14.968 14.552 14.968H6.632L6.704 15.784C6.768 16.392 6.832 16.84 6.896 17.128C6.976 17.4 7.072 17.584 7.184 17.68C7.312 17.776 7.496 17.824 7.736 17.824C7.896 17.392 8.168 17.04 8.552 16.768C8.936 16.48 9.368 16.336 9.848 16.336C10.328 16.336 10.76 16.48 11.144 16.768C11.544 17.04 11.824 17.4 11.984 17.848H13.472C13.632 17.4 13.904 17.04 14.288 16.768C14.688 16.48 15.128 16.336 15.608 16.336C16.232 16.336 16.76 16.56 17.192 17.008C17.64 17.44 17.864 17.968 17.864 18.592C17.864 19.216 17.64 19.744 17.192 20.176C16.76 20.624 16.232 20.848 15.608 20.848C15.128 20.848 14.688 20.704 14.288 20.416C13.904 20.144 13.632 19.784 13.472 19.336H11.984C11.824 19.784 11.544 20.144 11.144 20.416C10.76 20.704 10.328 20.848 9.848 20.848C9.368 20.848 8.928 20.704 8.528 20.416C8.144 20.144 7.872 19.784 7.712 19.336C7.04 19.32 6.512 19.12 6.128 18.736C5.808 18.432 5.576 17.992 5.432 17.416C5.336 17.08 5.264 16.584 5.216 15.928L4.064 3.904C4.016 3.312 3.776 2.824 3.344 2.44C2.912 2.04 2.4 1.84 1.808 1.84H0.752C0.544 1.84 0.368 1.768 0.224 1.624C0.0800001 1.48 0.00800008 1.304 0.00800008 1.096C0.00800008 0.887999 0.0800001 0.711999 0.224 0.568C0.368 0.424 0.544 0.352 0.752 0.352H1.808C2.448 0.352 3.04 0.504 3.584 0.808C4.144 1.096 4.6 1.504 4.952 2.032C5.304 2.544 5.512 3.12 5.576 3.76L5.6 4.216H21.248C21.52 4.216 21.736 4.336 21.896 4.576ZM15.608 17.824C15.4 17.824 15.216 17.896 15.056 18.04C14.912 18.184 14.84 18.368 14.84 18.592C14.84 18.8 14.912 18.976 15.056 19.12C15.216 19.28 15.4 19.36 15.608 19.36C15.816 19.36 15.992 19.28 16.136 19.12C16.28 18.976 16.352 18.8 16.352 18.592C16.352 18.384 16.28 18.208 16.136 18.064C15.992 17.904 15.816 17.824 15.608 17.824ZM9.848 17.824C9.64 17.824 9.456 17.904 9.296 18.064C9.152 18.208 9.08 18.384 9.08 18.592C9.08 18.8 9.152 18.976 9.296 19.12C9.456 19.28 9.64 19.36 9.848 19.36C10.072 19.36 10.256 19.28 10.4 19.12C10.544 18.976 10.616 18.8 10.616 18.592C10.616 18.368 10.544 18.184 10.4 18.04C10.256 17.896 10.072 17.824 9.848 17.824ZM16.568 12.232L20 5.728H5.744L6.488 13.456H14.552C14.984 13.456 15.376 13.352 15.728 13.144C16.096 12.92 16.376 12.616 16.568 12.232Z" fill="#212121"/>
</svg>
