<svg width="33" height="32" viewBox="0 0 33 32" fill="none" xmlns="http://www.w3.org/2000/svg">
<path fill-rule="evenodd" clip-rule="evenodd" d="M9.00997 1.6C9.00997 0.716347 9.72629 0 10.61 0H25.5934C26.0393 0 26.465 0.186069 26.7678 0.513349L32.051 6.2232C32.3246 6.51893 32.4766 6.90699 32.4766 7.30987V30.4C32.4766 31.2837 31.7603 32 30.8766 32H10.61C9.72629 32 9.00997 31.2837 9.00997 30.4V1.6ZM14.8766 10.6667C14.5821 10.6667 14.3433 10.9054 14.3433 11.2C14.3433 11.4946 14.5821 11.7333 14.8766 11.7333H26.0766C26.3712 11.7333 26.61 11.4946 26.61 11.2C26.61 10.9054 26.3712 10.6667 26.0766 10.6667H14.8766ZM14.3433 15.4667C14.3433 15.1721 14.5821 14.9333 14.8766 14.9333H26.0766C26.3712 14.9333 26.61 15.1721 26.61 15.4667C26.61 15.7612 26.3712 16 26.0766 16H14.8766C14.5821 16 14.3433 15.7612 14.3433 15.4667ZM14.8766 19.2C14.5821 19.2 14.3433 19.4388 14.3433 19.7333C14.3433 20.0279 14.5821 20.2667 14.8766 20.2667H26.0766C26.3712 20.2667 26.61 20.0279 26.61 19.7333C26.61 19.4388 26.3712 19.2 26.0766 19.2H14.8766ZM0.771216 7.7672L7.94331 3.52831V7.68837L2.36424 13.4106L0.23176 9.96469C-0.226096 9.20891 0.0154289 8.22507 0.771216 7.7672ZM7.94331 9.21632L0.839413 16.5025C0.222538 17.1353 0.235376 18.1482 0.86808 18.7651L7.94331 26.0127V9.21632Z" fill="#888888"/>
</svg>
