<svg width="40" height="40" viewBox="0 0 40 40" fill="none" xmlns="http://www.w3.org/2000/svg">
<path d="M29.4531 17.6042C27.6968 17.6042 25.9799 18.125 24.5196 19.1007C23.0592 20.0765 21.921 21.4634 21.2489 23.0861C20.5768 24.7087 20.4009 26.4942 20.7436 28.2168C21.0862 29.9394 21.932 31.5217 23.1739 32.7636C24.4158 34.0055 25.9981 34.8513 27.7207 35.194C29.4433 35.5366 31.2288 35.3607 32.8515 34.6886C34.4741 34.0165 35.861 32.8783 36.8368 31.418C37.8125 29.9576 38.3334 28.2407 38.3334 26.4844C38.3307 24.13 37.3943 21.8728 35.7295 20.208C34.0647 18.5433 31.8075 17.6068 29.4531 17.6042ZM34.1557 23.7378L27.8699 30.0399C27.8167 30.0933 27.7535 30.1357 27.6839 30.1646C27.6143 30.1935 27.5397 30.2083 27.4643 30.2083C27.3889 30.2083 27.3143 30.1935 27.2447 30.1646C27.1751 30.1357 27.1119 30.0933 27.0587 30.0399L24.1777 27.1516C24.1243 27.0984 24.0819 27.0351 24.053 26.9655C24.024 26.8959 24.0091 26.8212 24.0091 26.7458C24.0091 26.6704 24.0239 26.5958 24.0528 26.5261C24.0817 26.4565 24.124 26.3932 24.1774 26.34C24.2308 26.2868 24.2942 26.2446 24.3639 26.2159C24.4336 26.1872 24.5083 26.1725 24.5837 26.1728C24.6591 26.173 24.7337 26.1881 24.8033 26.2173C24.8728 26.2464 24.9359 26.289 24.989 26.3425L27.4643 28.8242L33.3444 22.9288C33.3975 22.8752 33.4606 22.8327 33.5301 22.8035C33.5996 22.7744 33.6743 22.7593 33.7497 22.7591C33.825 22.7588 33.8998 22.7735 33.9695 22.8022C34.0392 22.8309 34.1026 22.873 34.156 22.9263C34.2093 22.9795 34.2517 23.0428 34.2806 23.1124C34.3095 23.1821 34.3243 23.2567 34.3243 23.3321C34.3243 23.4075 34.3094 23.4822 34.2804 23.5518C34.2515 23.6214 34.2091 23.6846 34.1557 23.7378Z" fill="#8800EC"/>
<path d="M13.3829 14.9813L14.2661 13.5554L14.2492 13.5163H12.3595C12.1607 13.5169 11.9652 13.4663 11.7916 13.3695C11.618 13.2727 11.4722 13.1329 11.3682 12.9635L9.99103 10.7392H9.95718L8.57986 12.9635C8.47594 13.1329 8.33018 13.2727 8.1566 13.3695C7.98302 13.4663 7.78746 13.5169 7.58871 13.5163H5.69905L5.68213 13.5554L6.56528 14.9813C6.68085 15.1665 6.74214 15.3805 6.74219 15.5988C6.74224 15.8171 6.68105 16.0311 6.56557 16.2164L5.68213 17.6425L5.69905 17.6817H7.58873C7.78749 17.6811 7.98306 17.7316 8.15666 17.8284C8.33025 17.9252 8.47604 18.065 8.58 18.2344L9.95718 20.4587H9.99103L11.3684 18.2344C11.4723 18.065 11.618 17.9252 11.7916 17.8284C11.9652 17.7316 12.1608 17.681 12.3595 17.6817H14.2492L14.2661 17.6425L13.3829 16.2166C13.2674 16.0314 13.2061 15.8175 13.206 15.5991C13.206 15.3808 13.2672 15.1669 13.3827 14.9816L13.3829 14.9813Z" fill="#8800EC"/>
<path d="M18.2813 21.3281C18.2817 21.1763 18.3422 21.0308 18.4496 20.9235C18.5569 20.8162 18.7024 20.7557 18.8542 20.7552H21.2289C21.6679 20.1264 22.1773 19.5497 22.7472 19.0365H18.8542C18.7022 19.0365 18.5565 18.9761 18.4491 18.8687C18.3416 18.7612 18.2813 18.6155 18.2813 18.4635C18.2813 18.3116 18.3416 18.1659 18.4491 18.0584C18.5565 17.951 18.7022 17.8906 18.8542 17.8906H24.2912C25.8008 16.983 27.5231 16.4894 29.2844 16.4598C31.0456 16.4301 32.7836 16.8653 34.3229 17.7216V6.71875C34.3226 6.26302 34.1414 5.82606 33.8191 5.50381C33.4969 5.18156 33.0599 5.00036 32.6042 5H3.38544C2.92971 5.00036 2.49275 5.18156 2.1705 5.50381C1.84825 5.82606 1.66705 6.26302 1.66669 6.71875L1.66669 24.4792C1.66705 24.9349 1.84825 25.3719 2.1705 25.6941C2.49275 26.0164 2.92971 26.1976 3.38544 26.1979H19.43C19.4722 24.7009 19.8501 23.2325 20.5357 21.901H18.8542C18.7024 21.9006 18.5569 21.8401 18.4496 21.7327C18.3422 21.6254 18.2817 21.4799 18.2813 21.3281ZM18.8542 9.29687H30.8854C31.0374 9.29687 31.1831 9.35724 31.2905 9.46468C31.398 9.57212 31.4584 9.71784 31.4584 9.86979C31.4584 10.0217 31.398 10.1675 31.2905 10.2749C31.1831 10.3823 31.0374 10.4427 30.8854 10.4427H18.8542C18.7022 10.4427 18.5565 10.3823 18.4491 10.2749C18.3416 10.1675 18.2813 10.0217 18.2813 9.86979C18.2813 9.71784 18.3416 9.57212 18.4491 9.46468C18.5565 9.35724 18.7022 9.29687 18.8542 9.29687ZM18.8542 12.1615H30.8854C31.0374 12.1615 31.1831 12.2218 31.2905 12.3293C31.398 12.4367 31.4584 12.5824 31.4584 12.7344C31.4584 12.8863 31.398 13.032 31.2905 13.1395C31.1831 13.2469 31.0374 13.3073 30.8854 13.3073H18.8542C18.7022 13.3073 18.5565 13.2469 18.4491 13.1395C18.3416 13.032 18.2813 12.8863 18.2813 12.7344C18.2813 12.5824 18.3416 12.4367 18.4491 12.3293C18.5565 12.2218 18.7022 12.1615 18.8542 12.1615ZM18.8542 15.026H28.0209C28.1728 15.026 28.3185 15.0864 28.426 15.1938C28.5334 15.3013 28.5938 15.447 28.5938 15.599C28.5938 15.7509 28.5334 15.8966 28.426 16.0041C28.3185 16.1115 28.1728 16.1719 28.0209 16.1719H18.8542C18.7022 16.1719 18.5565 16.1115 18.4491 16.0041C18.3416 15.8966 18.2813 15.7509 18.2813 15.599C18.2813 15.447 18.3416 15.3013 18.4491 15.1938C18.5565 15.0864 18.7022 15.026 18.8542 15.026ZM15.2391 17.0398C15.3494 17.2168 15.4105 17.42 15.4158 17.6284C15.4212 17.8369 15.3707 18.0429 15.2696 18.2253C15.1685 18.4077 15.0204 18.5596 14.8408 18.6655C14.6611 18.7714 14.4564 18.8272 14.2479 18.8273H12.3602L10.9651 21.0617C10.8608 21.2307 10.7149 21.3702 10.5414 21.467C10.368 21.5638 10.1726 21.6146 9.97398 21.6146C9.77534 21.6146 9.58 21.5638 9.40652 21.467C9.23305 21.3702 9.0872 21.2307 8.98283 21.0617L7.60497 18.8388L5.70002 18.8273C5.49151 18.8272 5.28682 18.7714 5.10717 18.6655C4.92753 18.5596 4.77948 18.4077 4.67836 18.2253C4.57725 18.0429 4.52676 17.8369 4.53212 17.6284C4.53749 17.42 4.59851 17.2168 4.70887 17.0398L5.59117 15.6133C5.59396 15.609 5.59545 15.604 5.59545 15.599C5.59545 15.5939 5.59396 15.5889 5.59117 15.5846L4.70887 14.1581C4.59852 13.9812 4.53749 13.7779 4.53213 13.5695C4.52677 13.3611 4.57726 13.155 4.67837 12.9726C4.77949 12.7903 4.92754 12.6383 5.10718 12.5324C5.28682 12.4266 5.49151 12.3707 5.70002 12.3706H7.58778L8.98283 10.1362C9.0872 9.96719 9.23305 9.82767 9.40652 9.7309C9.58 9.63414 9.77534 9.58335 9.97398 9.58335C10.1726 9.58335 10.368 9.63414 10.5414 9.7309C10.7149 9.82767 10.8608 9.96719 10.9651 10.1362L12.343 12.3591L14.2479 12.3706C14.4564 12.3707 14.6611 12.4266 14.8408 12.5324C15.0204 12.6383 15.1685 12.7903 15.2696 12.9726C15.3707 13.155 15.4212 13.3611 15.4158 13.5695C15.4105 13.7779 15.3494 13.9812 15.2391 14.1581L14.3568 15.5846C14.354 15.5889 14.3525 15.5939 14.3525 15.599C14.3525 15.604 14.354 15.609 14.3568 15.6133L15.2391 17.0398Z" fill="#8800EC"/>
</svg>
