<svg width="847" height="440" viewBox="0 0 847 440" fill="none" xmlns="http://www.w3.org/2000/svg">
<g opacity="0.8" filter="url(#filter0_d_1_3800)">
<path d="M786.892 355.046C786.94 357.03 786.972 359.018 786.988 361.009L786.488 361.013C786.496 362.008 786.5 363.004 786.5 364C786.5 364.996 786.496 365.992 786.488 366.986L786.988 366.99C786.972 368.982 786.94 370.97 786.892 372.954L786.392 372.942C786.345 374.924 786.281 376.901 786.202 378.874L786.701 378.894C786.622 380.878 786.526 382.857 786.415 384.833L785.915 384.805C785.804 386.791 785.676 388.773 785.532 390.75L786.031 390.787C785.887 392.767 785.727 394.743 785.552 396.714L785.054 396.67C784.878 398.643 784.687 400.611 784.48 402.575L784.977 402.628C784.769 404.609 784.544 406.585 784.304 408.556L783.808 408.496C783.568 410.464 783.312 412.428 783.041 414.387L783.536 414.455C783.264 416.419 782.977 418.378 782.673 420.332L782.179 420.256C781.874 422.221 781.554 424.181 781.218 426.136L781.71 426.22C781.374 428.178 781.021 430.13 780.654 432.076L780.162 431.983C779.795 433.929 779.412 435.868 779.014 437.802L779.503 437.903C779.102 439.853 778.685 441.798 778.252 443.736L777.764 443.627C777.332 445.563 776.884 447.493 776.422 449.417L776.908 449.534C776.444 451.461 775.966 453.382 775.471 455.298L774.987 455.173C774.491 457.097 773.979 459.016 773.452 460.927L773.934 461.06C773.407 462.975 772.864 464.883 772.306 466.785L771.826 466.644C771.269 468.544 770.696 470.437 770.109 472.324L770.586 472.472C769.995 474.372 769.388 476.265 768.767 478.151L768.292 477.994C767.671 479.878 767.036 481.754 766.385 483.624L766.858 483.788C766.206 485.661 765.54 487.526 764.859 489.385L764.389 489.213C763.706 491.078 763.008 492.935 762.295 494.785L762.762 494.965C762.048 496.818 761.32 498.664 760.577 500.502L760.113 500.314C759.371 502.15 758.614 503.979 757.843 505.8L758.304 505.995C757.528 507.825 756.739 509.648 755.934 511.463L755.477 511.261C754.674 513.073 753.857 514.878 753.025 516.675L753.479 516.885C752.646 518.685 751.799 520.477 750.937 522.261L750.487 522.043C749.624 523.83 748.747 525.609 747.856 527.38L748.302 527.605C747.41 529.378 746.503 531.143 745.583 532.899L745.14 532.667C744.221 534.422 743.287 536.168 742.34 537.905L742.779 538.144C741.828 539.889 740.864 541.625 739.885 543.352L739.45 543.105C738.473 544.83 737.483 546.545 736.478 548.252L736.909 548.506C735.903 550.216 734.884 551.917 733.851 553.608L733.424 553.348C732.39 555.041 731.343 556.724 730.283 558.399L730.706 558.666C729.644 560.343 728.569 562.01 727.48 563.668L727.062 563.394C725.975 565.05 724.875 566.697 723.761 568.335L724.175 568.616C723.058 570.258 721.929 571.89 720.786 573.513L720.378 573.225C719.237 574.845 718.083 576.456 716.916 578.057L717.32 578.351C716.152 579.954 714.97 581.548 713.776 583.132L713.377 582.831C712.184 584.413 710.977 585.986 709.759 587.549L710.153 587.856C708.933 589.421 707.7 590.976 706.455 592.52L706.066 592.206C704.822 593.748 703.566 595.28 702.297 596.802L702.681 597.122C701.41 598.647 700.127 600.16 698.832 601.664L698.453 601.337C697.16 602.839 695.854 604.329 694.537 605.809L694.91 606.141C693.591 607.623 692.26 609.094 690.917 610.554L690.549 610.216C689.207 611.674 687.853 613.122 686.488 614.558L686.851 614.902C685.484 616.341 684.105 617.768 682.715 619.183L682.359 618.833C680.97 620.247 679.571 621.649 678.16 623.04L678.511 623.396C677.098 624.789 675.674 626.171 674.238 627.541L673.893 627.179C672.46 628.547 671.015 629.904 669.559 631.248L669.899 631.615C668.441 632.962 666.973 634.296 665.494 635.618L665.16 635.246C663.683 636.566 662.196 637.875 660.697 639.171L661.024 639.549C659.524 640.847 658.012 642.133 656.49 643.407L656.169 643.024C654.651 644.295 653.121 645.555 651.581 646.802L651.896 647.19C650.354 648.439 648.802 649.675 647.24 650.898L646.931 650.504C645.371 651.726 643.801 652.935 642.221 654.132L642.522 654.531C640.941 655.728 639.35 656.912 637.749 658.084L637.453 657.681C635.855 658.85 634.246 660.007 632.628 661.151L632.917 661.56C631.297 662.705 629.667 663.838 628.027 664.957L627.745 664.544C626.11 665.661 624.465 666.765 622.81 667.855L623.085 668.272C621.429 669.364 619.764 670.442 618.089 671.507L617.821 671.085C616.149 672.148 614.467 673.198 612.776 674.235L613.038 674.661C611.348 675.698 609.648 676.72 607.94 677.729L607.686 677.299C605.981 678.306 604.267 679.3 602.544 680.28L602.792 680.715C601.066 681.696 599.333 682.664 597.59 683.617L597.35 683.179C595.614 684.129 593.869 685.065 592.116 685.988L592.349 686.43C590.594 687.354 588.831 688.263 587.059 689.159L586.834 688.712C585.065 689.606 583.287 690.486 581.502 691.352L581.72 691.802C579.937 692.666 578.147 693.517 576.348 694.353L576.137 693.899C574.342 694.734 572.538 695.554 570.727 696.36L570.93 696.816C569.116 697.623 567.295 698.416 565.465 699.194L565.27 698.734C563.45 699.507 561.622 700.267 559.787 701.012L559.975 701.475C558.138 702.221 556.294 702.952 554.442 703.668L554.262 703.202C552.413 703.917 550.556 704.617 548.692 705.303L548.865 705.772C547.007 706.456 545.142 707.125 543.27 707.779L543.105 707.307C541.237 707.959 539.361 708.597 537.478 709.22L537.635 709.695C535.75 710.319 533.858 710.928 531.96 711.521L531.81 711.044C529.924 711.634 528.032 712.208 526.132 712.768L526.274 713.247C524.373 713.807 522.465 714.352 520.551 714.882L520.418 714.4C518.506 714.929 516.589 715.443 514.665 715.941L514.79 716.425C512.875 716.921 510.954 717.402 509.027 717.867L508.91 717.381C506.986 717.846 505.057 718.295 503.122 718.729L503.231 719.216C501.293 719.651 499.349 720.07 497.4 720.473L497.299 719.983C495.365 720.383 493.425 720.768 491.48 721.137L491.573 721.628C489.627 721.997 487.675 722.351 485.718 722.689L485.633 722.196C483.679 722.534 481.719 722.855 479.754 723.162L479.831 723.656C477.877 723.96 475.918 724.249 473.954 724.522L473.885 724.027C471.927 724.299 469.963 724.556 467.995 724.797L468.055 725.293C466.084 725.534 464.108 725.76 462.128 725.969L462.075 725.472C460.111 725.68 458.142 725.872 456.169 726.048L456.214 726.546C454.243 726.722 452.267 726.882 450.287 727.027L450.25 726.528C448.273 726.672 446.291 726.801 444.305 726.913L444.333 727.412C442.358 727.524 440.378 727.62 438.395 727.7L438.375 727.2C436.401 727.28 434.424 727.344 432.442 727.392L432.454 727.892C430.47 727.94 428.482 727.972 426.491 727.988L426.487 727.488C425.492 727.496 424.496 727.5 423.5 727.5C422.504 727.5 421.508 727.496 420.514 727.488L420.51 727.988C418.518 727.972 416.53 727.94 414.546 727.892L414.558 727.392C412.577 727.344 410.599 727.28 408.626 727.2L408.606 727.7C406.622 727.62 404.642 727.524 402.667 727.412L402.695 726.913C400.709 726.801 398.727 726.672 396.75 726.528L396.714 727.027C394.733 726.882 392.758 726.722 390.787 726.546L390.831 726.048C388.858 725.872 386.889 725.68 384.925 725.472L384.873 725.969C382.892 725.76 380.916 725.534 378.945 725.293L379.006 724.797C377.037 724.556 375.074 724.299 373.115 724.027L373.046 724.522C371.082 724.249 369.123 723.96 367.169 723.656L367.246 723.162C365.281 722.855 363.322 722.534 361.367 722.196L361.282 722.689C359.325 722.351 357.373 721.997 355.427 721.628L355.52 721.137C353.575 720.768 351.636 720.383 349.702 719.983L349.6 720.473C347.651 720.07 345.707 719.651 343.769 719.216L343.879 718.729C341.943 718.295 340.014 717.846 338.09 717.381L337.973 717.867C336.046 717.402 334.125 716.921 332.21 716.425L332.335 715.941C330.411 715.443 328.494 714.929 326.582 714.4L326.449 714.882C324.535 714.352 322.628 713.807 320.726 713.247L320.868 712.768C318.969 712.208 317.076 711.634 315.19 711.044L315.041 711.521C313.142 710.928 311.25 710.319 309.365 709.695L309.522 709.22C307.639 708.597 305.764 707.96 303.895 707.307L303.73 707.779C301.858 707.125 299.993 706.456 298.135 705.772L298.308 705.303C296.444 704.618 294.588 703.917 292.738 703.202L292.558 703.668C290.706 702.952 288.862 702.221 287.025 701.475L287.213 701.012C285.378 700.267 283.55 699.507 281.731 698.734L281.535 699.194C279.706 698.416 277.884 697.623 276.07 696.816L276.273 696.36C274.462 695.554 272.659 694.734 270.863 693.899L270.652 694.353C268.854 693.517 267.063 692.667 265.28 691.802L265.498 691.352C263.713 690.486 261.935 689.606 260.166 688.712L259.941 689.159C258.169 688.263 256.406 687.354 254.651 686.43L254.884 685.988C253.131 685.066 251.386 684.129 249.65 683.179L249.41 683.617C247.668 682.664 245.934 681.696 244.209 680.715L244.456 680.28C242.733 679.3 241.019 678.306 239.314 677.299L239.06 677.729C237.352 676.72 235.652 675.698 233.962 674.661L234.224 674.235C232.533 673.199 230.851 672.148 229.179 671.085L228.911 671.507C227.236 670.442 225.571 669.364 223.915 668.273L224.19 667.855C222.536 666.765 220.891 665.661 219.255 664.545L218.973 664.958C217.334 663.838 215.703 662.705 214.083 661.56L214.372 661.151C212.754 660.007 211.145 658.851 209.547 657.681L209.252 658.084C207.65 656.913 206.059 655.728 204.478 654.531L204.78 654.132C203.199 652.935 201.629 651.726 200.069 650.505L199.76 650.898C198.198 649.675 196.646 648.439 195.105 647.191L195.419 646.802C193.879 645.555 192.35 644.296 190.831 643.024L190.51 643.408C188.988 642.134 187.477 640.848 185.976 639.549L186.303 639.171C184.805 637.875 183.317 636.566 181.84 635.246L181.507 635.619C180.027 634.296 178.559 632.962 177.102 631.616L177.441 631.248C175.985 629.904 174.541 628.547 173.107 627.179L172.762 627.541C171.327 626.171 169.902 624.79 168.489 623.397L168.84 623.041C167.429 621.65 166.03 620.247 164.642 618.833L164.285 619.183C162.895 617.768 161.516 616.341 160.149 614.902L160.512 614.558C159.147 613.122 157.793 611.674 156.452 610.216L156.084 610.554C154.741 609.094 153.409 607.623 152.09 606.141L152.463 605.809C151.146 604.329 149.84 602.839 148.547 601.338L148.168 601.664C146.873 600.161 145.59 598.647 144.319 597.122L144.703 596.802C143.435 595.281 142.178 593.748 140.935 592.206L140.545 592.52C139.3 590.976 138.067 589.421 136.847 587.857L137.241 587.549C136.023 585.987 134.816 584.414 133.623 582.831L133.224 583.132C132.03 581.548 130.848 579.955 129.68 578.351L130.084 578.057C128.917 576.456 127.763 574.845 126.623 573.225L126.214 573.513C125.071 571.89 123.942 570.258 122.825 568.616L123.239 568.335C122.125 566.697 121.025 565.05 119.938 563.394L119.52 563.668C118.431 562.01 117.356 560.343 116.295 558.666L116.717 558.399C115.657 556.724 114.61 555.041 113.576 553.348L113.149 553.609C112.116 551.917 111.097 550.216 110.091 548.506L110.522 548.252C109.518 546.546 108.527 544.83 107.55 543.105L107.115 543.352C106.136 541.625 105.172 539.889 104.221 538.145L104.66 537.905C103.713 536.168 102.779 534.422 101.86 532.667L101.417 532.899C100.497 531.143 99.5902 529.378 98.6978 527.605L99.1444 527.38C98.2532 525.61 97.3761 523.831 96.5131 522.043L96.0628 522.261C95.2014 520.477 94.3542 518.685 93.5211 516.885L93.9749 516.675C93.1432 514.878 92.3258 513.073 91.5228 511.261L91.0657 511.463C90.2615 509.648 89.4717 507.825 88.6965 505.995L89.1569 505.8C88.3858 503.979 87.6291 502.15 86.887 500.314L86.4234 500.502C85.6804 498.664 84.952 496.818 84.2382 494.965L84.7048 494.786C83.992 492.935 83.2939 491.078 82.6107 489.213L82.1412 489.385C81.4602 487.527 80.7939 485.661 80.1425 483.788L80.6147 483.624C79.9643 481.754 79.3287 479.878 78.708 477.994L78.2332 478.151C77.6117 476.265 77.0052 474.372 76.4138 472.473L76.8912 472.324C76.3038 470.437 75.7314 468.544 75.174 466.645L74.6943 466.785C74.1363 464.883 73.5934 462.975 73.0657 461.061L73.5477 460.928C73.0208 459.016 72.5091 457.097 72.0127 455.173L71.5285 455.298C71.0345 453.383 70.5557 451.461 70.0922 449.534L70.5783 449.417C70.1156 447.493 69.6682 445.563 69.2362 443.627L68.7482 443.736C68.3156 441.798 67.8984 439.854 67.4968 437.904L67.9865 437.803C67.5882 435.869 67.2052 433.929 66.8377 431.984L66.3464 432.076C65.9786 430.13 65.6264 428.178 65.2897 426.221L65.7825 426.136C65.4463 424.181 65.1256 422.221 64.8207 420.256L64.3266 420.333C64.0235 418.379 63.7359 416.42 63.4639 414.456L63.9592 414.387C63.688 412.428 63.4323 410.465 63.1924 408.496L62.696 408.556C62.4558 406.585 62.2312 404.609 62.0226 402.628L62.5198 402.576C62.313 400.612 62.1217 398.643 61.9462 396.67L61.4482 396.714C61.2728 394.743 61.1132 392.767 60.9693 390.787L61.468 390.751C61.3244 388.773 61.1965 386.791 61.0846 384.805L60.5854 384.833C60.4741 382.858 60.3785 380.878 60.2988 378.895L60.7984 378.875C60.7191 376.901 60.6555 374.924 60.6077 372.942L60.1078 372.954C60.06 370.97 60.028 368.982 60.012 366.991L60.512 366.987C60.504 365.992 60.5 364.996 60.5 364C60.5 363.004 60.504 362.008 60.512 361.014L60.012 361.01C60.028 359.018 60.06 357.03 60.1078 355.046L60.6077 355.058C60.6555 353.076 60.7191 351.099 60.7984 349.126L60.2988 349.106C60.3785 347.122 60.4741 345.143 60.5854 343.167L61.0846 343.195C61.1965 341.209 61.3243 339.227 61.468 337.25L60.9693 337.213C61.1131 335.233 61.2728 333.257 61.4481 331.286L61.9462 331.33C62.1217 329.357 62.3129 327.389 62.5198 325.425L62.0225 325.372C62.2312 323.391 62.4557 321.415 62.696 319.444L63.1923 319.504C63.4323 317.536 63.6879 315.572 63.9592 313.613L63.4639 313.545C63.7359 311.581 64.0235 309.622 64.3266 307.668L64.8207 307.744C65.1256 305.779 65.4462 303.819 65.7824 301.864L65.2897 301.78C65.6263 299.822 65.9786 297.87 66.3464 295.924L66.8377 296.017C67.2052 294.071 67.5881 292.132 67.9865 290.198L67.4968 290.097C67.8983 288.147 68.3155 286.202 68.7481 284.264L69.2361 284.373C69.6681 282.437 70.1155 280.507 70.5782 278.583L70.0921 278.466C70.5556 276.539 71.0345 274.618 71.5285 272.702L72.0126 272.827C72.509 270.903 73.0207 268.985 73.5477 267.073L73.0657 266.94C73.5933 265.025 74.1362 263.117 74.6942 261.215L75.174 261.356C75.7313 259.456 76.3037 257.563 76.8911 255.676L76.4137 255.528C77.0051 253.628 77.6116 251.735 78.2331 249.849L78.708 250.006C79.3286 248.122 79.9642 246.246 80.6146 244.376L80.1424 244.212C80.7938 242.339 81.4601 240.474 82.1411 238.615L82.6106 238.787C83.2938 236.922 83.9919 235.065 84.7047 233.215L84.2381 233.035C84.9519 231.182 85.6803 229.336 86.4233 227.498L86.8869 227.686C87.629 225.85 88.3857 224.021 89.1568 222.2L88.6964 222.006C89.4717 220.175 90.2614 218.352 91.0656 216.537L91.5227 216.739C92.3257 214.927 93.1432 213.122 93.9748 211.325L93.521 211.115C94.3541 209.315 95.2013 207.523 96.0627 205.739L96.513 205.957C97.376 204.17 98.2531 202.391 99.1443 200.62L98.6977 200.395C99.5901 198.622 100.497 196.857 101.417 195.101L101.86 195.333C102.779 193.578 103.713 191.832 104.66 190.095L104.221 189.856C105.172 188.111 106.136 186.375 107.115 184.649L107.55 184.895C108.527 183.17 109.517 181.455 110.522 179.748L110.091 179.494C111.097 177.784 112.116 176.084 113.149 174.392L113.576 174.652C114.61 172.959 115.657 171.276 116.717 169.601L116.294 169.334C117.356 167.657 118.431 165.99 119.52 164.332L119.938 164.606C121.025 162.95 122.125 161.303 123.239 159.665L122.825 159.384C123.942 157.742 125.071 156.11 126.214 154.487L126.622 154.775C127.763 153.155 128.917 151.544 130.084 149.944L129.68 149.649C130.848 148.046 132.03 146.452 133.224 144.868L133.623 145.169C134.816 143.587 136.023 142.014 137.241 140.451L136.847 140.144C138.067 138.579 139.3 137.024 140.545 135.48L140.934 135.794C142.178 134.252 143.434 132.72 144.703 131.198L144.319 130.878C145.59 129.354 146.873 127.84 148.168 126.336L148.547 126.663C149.84 125.161 151.146 123.671 152.463 122.191L152.09 121.859C153.409 120.377 154.74 118.906 156.083 117.446L156.451 117.784C157.793 116.326 159.147 114.878 160.512 113.442L160.149 113.098C161.516 111.659 162.895 110.232 164.285 108.817L164.641 109.167C166.03 107.753 167.429 106.351 168.84 104.96L168.489 104.604C169.902 103.211 171.326 101.829 172.762 100.459L173.107 100.821C174.54 99.4529 175.985 98.0965 177.441 96.7519L177.101 96.3847C178.559 95.0385 180.027 93.7041 181.506 92.3817L181.84 92.7544C183.317 91.434 184.804 90.1255 186.303 88.829L185.976 88.4509C187.476 87.1527 188.988 85.8665 190.51 84.5926L190.83 84.9761C192.35 83.7045 193.879 82.4452 195.419 81.1982L195.104 80.8096C196.646 79.5613 198.198 78.3254 199.76 77.102L200.069 77.4956C201.629 76.2739 203.199 75.0647 204.779 73.8681L204.478 73.4694C206.059 72.2722 207.65 71.0876 209.251 69.9158L209.547 70.3194C211.145 69.1497 212.754 67.9927 214.372 66.8487L214.083 66.4404C215.703 65.2949 217.333 64.1622 218.973 63.0426L219.255 63.4556C220.89 62.339 222.535 61.2354 224.19 60.145L223.915 59.7275C225.571 58.6361 227.236 57.5579 228.911 56.4931L229.179 56.915C230.851 55.8516 232.533 54.8016 234.224 53.765L233.962 53.3387C235.652 52.3025 237.352 51.2798 239.06 50.2706L239.314 50.7011C241.019 49.6938 242.733 48.7001 244.456 47.72L244.208 47.2854C245.934 46.3041 247.667 45.3364 249.41 44.3826L249.65 44.8212C251.386 43.871 253.131 42.9346 254.884 42.0121L254.651 41.5696C256.406 40.6462 258.169 39.7368 259.941 38.8415L260.166 39.2878C261.935 38.3937 263.713 37.5137 265.498 36.6479L265.28 36.198C267.063 35.3336 268.853 34.4833 270.652 33.6474L270.863 34.1008C272.658 33.2664 274.462 32.4462 276.273 31.6404L276.07 31.1836C277.884 30.3767 279.705 29.5843 281.535 28.8064L281.73 29.2665C283.55 28.4926 285.378 27.7331 287.213 26.9883L287.025 26.525C288.862 25.7794 290.706 25.0483 292.558 24.3321L292.738 24.7984C294.587 24.0831 296.444 23.3825 298.308 22.6968L298.135 22.2276C299.993 21.544 301.858 20.8752 303.73 20.2213L303.895 20.6933C305.763 20.0405 307.639 19.4026 309.522 18.7797L309.365 18.305C311.25 17.6812 313.142 17.0725 315.04 16.4789L315.19 16.9561C317.076 16.3665 318.968 15.7918 320.868 15.2323L320.726 14.7527C322.627 14.1926 324.535 13.6476 326.449 13.1179L326.582 13.5998C328.494 13.0709 330.411 12.5572 332.335 12.0589L332.21 11.5749C334.125 11.0789 336.046 10.5982 337.973 10.1328L338.09 10.6188C340.014 10.1543 341.943 9.70515 343.878 9.27146L343.769 8.78357C345.707 8.34927 347.651 7.93048 349.6 7.52732L349.701 8.01696C351.635 7.617 353.575 7.23246 355.52 6.86345L355.427 6.37221C357.373 6.00299 359.325 5.64931 361.282 5.3113L361.367 5.804C363.321 5.46646 365.281 5.14456 367.246 4.83845L367.169 4.34441C369.123 4.04002 371.082 3.75121 373.046 3.47812L373.115 3.97336C375.073 3.70102 377.037 3.44433 379.005 3.20342L378.945 2.70712C380.916 2.46588 382.892 2.24044 384.872 2.03093L384.925 2.52815C386.889 2.32042 388.858 2.12837 390.831 1.95213L390.786 1.45412C392.757 1.27805 394.733 1.11774 396.713 0.973311L396.75 1.47199C398.727 1.32776 400.709 1.19939 402.695 1.08701L402.667 0.587811C404.642 0.476047 406.622 0.380075 408.605 0.300021L408.625 0.799614C410.599 0.719973 412.576 0.656106 414.558 0.608137L414.546 0.108284C416.53 0.0602496 418.518 0.0281349 420.509 0.0120622L420.513 0.512046C421.508 0.50402 422.504 0.5 423.5 0.5C424.496 0.5 425.492 0.50402 426.486 0.512044L426.49 0.01206C428.482 0.0281311 430.47 0.0602441 432.454 0.108276L432.442 0.60813C434.423 0.656098 436.401 0.719963 438.374 0.799604L438.394 0.300011C440.378 0.380063 442.358 0.476033 444.333 0.587796L444.305 1.087C446.291 1.19937 448.273 1.32774 450.25 1.47197L450.286 0.973293C452.267 1.11772 454.242 1.27803 456.214 1.45409L456.169 1.95211C458.142 2.12835 460.111 2.3204 462.075 2.52813L462.127 2.0309C464.108 2.24041 466.084 2.46585 468.055 2.70709L467.994 3.20339C469.963 3.4443 471.926 3.70099 473.885 3.97332L473.954 3.47808C475.918 3.75118 477.877 4.03998 479.831 4.34437L479.754 4.83841C481.719 5.14453 483.678 5.46642 485.633 5.80396L485.718 5.31126C487.675 5.64927 489.627 6.00295 491.573 6.37216L491.48 6.8634C493.425 7.23241 495.364 7.61696 497.298 8.01691L497.4 7.52727C499.349 7.93043 501.293 8.34922 503.231 8.78351L503.121 9.27141C505.057 9.7051 506.986 10.1543 508.91 10.6188L509.027 10.1327C510.954 10.5981 512.875 11.0789 514.79 11.5749L514.665 12.0589C516.589 12.5572 518.506 13.0708 520.418 13.5998L520.551 13.1179C522.465 13.6476 524.372 14.1925 526.274 14.7526L526.132 15.2322C528.031 15.7917 529.924 16.3664 531.81 16.956L531.959 16.4788C533.858 17.0724 535.75 17.6811 537.635 18.3049L537.478 18.7796C539.361 19.4025 541.236 20.0405 543.105 20.6932L543.27 20.2212C545.142 20.8751 547.007 21.5439 548.865 22.2275L548.692 22.6968C550.556 23.3825 552.412 24.083 554.262 24.7983L554.442 24.332C556.294 25.0483 558.138 25.7793 559.975 26.5249L559.787 26.9882C561.622 27.7331 563.449 28.4925 565.269 29.2664L565.465 28.8063C567.294 29.5842 569.116 30.3766 570.93 31.1835L570.727 31.6403C572.538 32.4461 574.341 33.2663 576.137 34.1007L576.348 33.6473C578.146 34.4832 579.937 35.3335 581.72 36.1979L581.502 36.6478C583.287 37.5136 585.065 38.3936 586.834 39.2877L587.059 38.8414C588.831 39.7367 590.594 40.6462 592.349 41.5695L592.116 42.012C593.869 42.9345 595.614 43.8709 597.35 44.8211L597.59 44.3825C599.332 45.3363 601.066 46.304 602.791 47.2853L602.544 47.7199C604.267 48.7 605.981 49.6937 607.686 50.701L607.94 50.2705C609.648 51.2796 611.348 52.3024 613.038 53.3386L612.776 53.7648C614.467 54.8014 616.149 55.8515 617.821 56.9149L618.089 56.493C619.764 57.5578 621.429 58.636 623.085 59.7274L622.81 60.1449C624.464 61.2353 626.109 62.3388 627.745 63.4554L628.027 63.0425C629.666 64.1621 631.297 65.2947 632.917 66.4403L632.628 66.8486C634.246 67.9926 635.855 69.1495 637.453 70.3192L637.748 69.9157C639.35 71.0875 640.941 72.2721 642.522 73.4693L642.22 73.8679C643.801 75.0645 645.371 76.2737 646.931 77.4955L647.24 77.1018C648.802 78.3252 650.354 79.5612 651.895 80.8095L651.581 81.1981C653.121 82.445 654.65 83.7043 656.169 84.9759L656.49 84.5925C658.012 85.8664 659.523 87.1525 661.024 88.4507L660.697 88.8288C662.195 90.1253 663.683 91.4338 665.16 92.7542L665.493 92.3815C666.973 93.7039 668.441 95.0383 669.898 96.3845L669.559 96.7518C671.015 98.0964 672.459 99.4527 673.893 100.821L674.238 100.459C675.673 101.829 677.098 103.21 678.511 104.603L678.16 104.959C679.571 106.35 680.97 107.753 682.358 109.167L682.715 108.817C684.105 110.232 685.484 111.659 686.851 113.098L686.488 113.442C687.853 114.878 689.207 116.326 690.548 117.784L690.916 117.446C692.259 118.906 693.591 120.377 694.91 121.859L694.537 122.191C695.854 123.671 697.16 125.161 698.453 126.662L698.832 126.336C700.127 127.839 701.41 129.353 702.681 130.878L702.297 131.198C703.565 132.72 704.822 134.252 706.065 135.794L706.455 135.48C707.7 137.024 708.933 138.579 710.153 140.143L709.759 140.451C710.977 142.014 712.184 143.586 713.377 145.169L713.776 144.868C714.97 146.452 716.152 148.045 717.32 149.649L716.916 149.943C718.083 151.544 719.237 153.155 720.377 154.775L720.786 154.487C721.929 156.11 723.058 157.742 724.175 159.384L723.761 159.665C724.875 161.303 725.975 162.95 727.062 164.606L727.48 164.332C728.569 165.99 729.644 167.657 730.705 169.334L730.283 169.601C731.343 171.276 732.39 172.959 733.424 174.652L733.851 174.391C734.884 176.083 735.903 177.784 736.909 179.494L736.478 179.748C737.482 181.454 738.473 183.17 739.45 184.895L739.885 184.648C740.864 186.375 741.828 188.111 742.779 189.855L742.34 190.095C743.287 191.832 744.221 193.578 745.14 195.333L745.583 195.101C746.503 196.857 747.41 198.622 748.302 200.395L747.856 200.62C748.747 202.39 749.624 204.169 750.487 205.957L750.937 205.739C751.799 207.523 752.646 209.315 753.479 211.115L753.025 211.325C753.857 213.122 754.674 214.926 755.477 216.739L755.934 216.537C756.738 218.352 757.528 220.175 758.303 222.005L757.843 222.2C758.614 224.021 759.371 225.85 760.113 227.686L760.577 227.498C761.32 229.336 762.048 231.182 762.762 233.035L762.295 233.214C763.008 235.065 763.706 236.922 764.389 238.787L764.859 238.615C765.54 240.473 766.206 242.339 766.858 244.212L766.385 244.376C767.036 246.246 767.671 248.122 768.292 250.006L768.767 249.849C769.388 251.735 769.995 253.628 770.586 255.527L770.109 255.676C770.696 257.563 771.269 259.456 771.826 261.355L772.306 261.215C772.864 263.117 773.407 265.025 773.934 266.939L773.452 267.072C773.979 268.984 774.491 270.903 774.987 272.827L775.471 272.702C775.965 274.617 776.444 276.539 776.908 278.466L776.422 278.583C776.884 280.507 777.332 282.437 777.764 284.373L778.252 284.264C778.684 286.202 779.102 288.146 779.503 290.096L779.013 290.197C779.412 292.131 779.795 294.071 780.162 296.016L780.654 295.924C781.021 297.87 781.374 299.822 781.71 301.779L781.218 301.864C781.554 303.819 781.874 305.779 782.179 307.744L782.673 307.667C782.977 309.621 783.264 311.58 783.536 313.544L783.041 313.613C783.312 315.572 783.568 317.535 783.808 319.504L784.304 319.444C784.544 321.415 784.769 323.391 784.977 325.372L784.48 325.424C784.687 327.388 784.878 329.357 785.054 331.33L785.552 331.286C785.727 333.257 785.887 335.233 786.031 337.213L785.532 337.249C785.676 339.227 785.803 341.209 785.915 343.195L786.415 343.167C786.526 345.142 786.622 347.122 786.701 349.105L786.202 349.125C786.281 351.099 786.345 353.076 786.392 355.058L786.892 355.046Z" stroke="#CECECF" stroke-dasharray="6 6" shape-rendering="crispEdges"/>
</g>
<defs>
<filter id="filter0_d_1_3800" x="0" y="-60" width="847" height="848" filterUnits="userSpaceOnUse" color-interpolation-filters="sRGB">
<feFlood flood-opacity="0" result="BackgroundImageFix"/>
<feColorMatrix in="SourceAlpha" type="matrix" values="0 0 0 0 0 0 0 0 0 0 0 0 0 0 0 0 0 0 127 0" result="hardAlpha"/>
<feOffset/>
<feGaussianBlur stdDeviation="30"/>
<feComposite in2="hardAlpha" operator="out"/>
<feColorMatrix type="matrix" values="0 0 0 0 0.863333 0 0 0 0 0.952464 0 0 0 0 1 0 0 0 1 0"/>
<feBlend mode="normal" in2="BackgroundImageFix" result="effect1_dropShadow_1_3800"/>
<feBlend mode="normal" in="SourceGraphic" in2="effect1_dropShadow_1_3800" result="shape"/>
</filter>
</defs>
</svg>
