<svg width="33" height="41" viewBox="0 0 33 41" fill="none" xmlns="http://www.w3.org/2000/svg">
<path d="M28.9838 36.9925C28.6013 37.3799 28.3088 37.8468 28.1271 38.3599L27.8718 39.0807C27.819 39.2099 27.793 39.3483 27.7954 39.4878C27.7977 39.6273 27.8284 39.7648 27.8855 39.892C27.9427 40.0193 28.0251 40.1336 28.1277 40.228C28.2303 40.3225 28.3511 40.3951 28.4826 40.4414C28.6142 40.4878 28.7538 40.507 28.893 40.4977C29.0321 40.4885 29.168 40.4511 29.2923 40.3878C29.4166 40.3245 29.5267 40.2366 29.616 40.1295C29.7053 40.0223 29.7719 39.8981 29.8117 39.7645L30.0671 39.0437C30.1498 38.8133 30.2819 38.6038 30.4542 38.43C31.3892 37.4785 32.9502 35.4727 32.9502 32.7378V25.7564C32.9517 24.9157 32.6319 24.1063 32.056 23.4937C31.4802 22.8811 30.6921 22.5118 29.8529 22.4614C29.5073 22.4515 29.1624 22.4974 28.8314 22.5973C28.6106 22.1124 28.2717 21.6905 27.8457 21.3703C27.4198 21.0501 26.9203 20.8418 26.3931 20.7645C25.9365 20.701 25.4716 20.7361 25.0298 20.8674C24.8208 20.4058 24.5042 20.001 24.1064 19.6871C23.7087 19.3732 23.2414 19.1593 22.7439 19.0634C22.1933 18.961 21.6255 19.0036 21.0963 19.187L20.9275 12.8893C20.9087 12.1441 20.628 11.4293 20.1346 10.8704C19.6413 10.3115 18.9668 9.94428 18.2297 9.83318C17.798 9.77531 17.359 9.80875 16.9411 9.93135C16.5231 10.054 16.1356 10.263 15.8036 10.5449C15.4717 10.8268 15.2026 11.1753 15.0138 11.5678C14.8251 11.9603 14.721 12.3881 14.7081 12.8234L14.2962 27.927C14.2277 27.8665 14.1643 27.8004 14.1067 27.7293L12.9205 25.6988C12.43 24.8688 11.706 24.2017 10.8387 23.7805C9.97151 23.3593 8.99947 23.2028 8.04388 23.3305C7.69417 23.3787 7.3612 23.5103 7.07311 23.7144C6.78502 23.9184 6.55027 24.1887 6.38869 24.5026C6.22711 24.8165 6.14346 25.1646 6.14479 25.5176C6.14613 25.8706 6.23241 26.2181 6.39636 26.5308L10.9559 35.345C11.3694 36.1357 11.9975 36.7938 12.7681 37.2438L12.8876 37.3014L15.1694 38.2487L15.2476 38.2776C15.431 38.3367 15.598 38.4379 15.7354 38.573C15.8727 38.7082 15.9765 38.8736 16.0385 39.056L16.2773 39.748C16.3679 40.0037 16.5557 40.2133 16.7999 40.3313C17.0441 40.4494 17.325 40.4663 17.5816 40.3784C17.8382 40.2905 18.0498 40.1049 18.1704 39.8619C18.2909 39.619 18.3108 39.3382 18.2255 39.0807L17.9866 38.3888C17.8225 37.9116 17.5517 37.478 17.1948 37.1212C16.838 36.7643 16.4045 36.4935 15.9272 36.3294L13.7443 35.4232C13.3257 35.171 12.984 34.8092 12.7558 34.3771L8.17156 25.567C8.16063 25.5468 8.1548 25.5243 8.1546 25.5014C8.15439 25.4785 8.15982 25.4559 8.17039 25.4356C8.18096 25.4152 8.19636 25.3978 8.21523 25.3848C8.23411 25.3718 8.25589 25.3637 8.27865 25.361C8.83478 25.2844 9.40117 25.3736 9.90677 25.6176C10.4124 25.8616 10.8346 26.2495 11.1206 26.7326L12.3563 28.8167C12.3762 28.8523 12.3982 28.8867 12.4222 28.9197C13.2459 29.9988 14.6793 30.6825 15.8531 29.9041C15.9901 29.8135 16.1035 29.6915 16.1837 29.5482C16.264 29.4049 16.3088 29.2445 16.3144 29.0803L16.7798 12.8811C16.7842 12.7336 16.8196 12.5888 16.8837 12.4559C16.9478 12.323 17.0392 12.2052 17.1519 12.11C17.2645 12.0148 17.396 11.9444 17.5377 11.9034C17.6794 11.8624 17.8282 11.8517 17.9743 11.872C18.2267 11.9163 18.4557 12.0477 18.6212 12.2434C18.7868 12.4391 18.8785 12.6866 18.8804 12.9429L19.107 21.4482C19.1139 21.6857 19.2029 21.9136 19.3587 22.093C19.5145 22.2725 19.7276 22.3925 19.9618 22.4328C20.1961 22.473 20.437 22.431 20.6438 22.3139C20.8506 22.1967 21.0105 22.0116 21.0963 21.79C21.1918 21.5367 21.3745 21.3258 21.6115 21.1952C21.8486 21.0646 22.1245 21.0228 22.3896 21.0775C22.6548 21.1416 22.8899 21.2948 23.0556 21.5114C23.2213 21.7281 23.3075 21.9951 23.2999 22.2678V22.5026C23.2996 22.7127 23.3636 22.9178 23.4832 23.0905C23.6028 23.2632 23.7724 23.3951 23.9692 23.4687C24.166 23.5422 24.3806 23.5537 24.5842 23.5018C24.7877 23.4499 24.9705 23.3369 25.108 23.1781C25.2331 23.0321 25.3932 22.9204 25.5733 22.8533C25.7535 22.7863 25.9477 22.7663 26.1377 22.795C26.416 22.8493 26.6662 23.0002 26.844 23.221C27.0219 23.4418 27.116 23.7184 27.1098 24.0018V24.2284C27.1095 24.4384 27.1734 24.6436 27.2931 24.8163C27.4127 24.989 27.5823 25.1209 27.7791 25.1944C27.9759 25.2679 28.1905 25.2795 28.3941 25.2276C28.5976 25.1756 28.7804 25.0627 28.9179 24.9038C29.0275 24.7728 29.165 24.6678 29.3204 24.5965C29.4757 24.5253 29.645 24.4895 29.8158 24.492C30.1228 24.5181 30.4081 24.6607 30.6133 24.8904C30.8185 25.1202 30.9281 25.4197 30.9197 25.7276V32.7378C30.8908 34.8178 29.5563 36.4035 28.9838 36.9925Z" fill="#8800EC"/>
<path d="M0 5.05539C0 5.32848 0.108486 5.59039 0.301592 5.78349C0.494698 5.9766 0.756606 6.08508 1.0297 6.08508H3.52569V8.58107C3.52569 8.85417 3.63417 9.11608 3.82728 9.30918C4.02039 9.50229 4.28229 9.61077 4.55539 9.61077C4.82848 9.61077 5.09039 9.50229 5.28349 9.30918C5.4766 9.11608 5.58508 8.85417 5.58508 8.58107V6.08508H8.08107C8.35417 6.08508 8.61608 5.9766 8.80918 5.78349C9.00229 5.59039 9.11077 5.32848 9.11077 5.05539C9.11077 4.78229 9.00229 4.52039 8.80918 4.32728C8.61608 4.13417 8.35417 4.02569 8.08107 4.02569H5.58508V1.5297C5.58508 1.25661 5.4766 0.994698 5.28349 0.801592C5.09039 0.608486 4.82848 0.5 4.55539 0.5C4.28229 0.5 4.02039 0.608486 3.82728 0.801592C3.63417 0.994698 3.52569 1.25661 3.52569 1.5297V4.02569H1.0297C0.756606 4.02569 0.494698 4.13417 0.301592 4.32728C0.108486 4.52039 0 4.78229 0 5.05539Z" fill="#8800EC"/>
<path d="M14.2633 4.0257C13.9902 4.0257 13.7283 4.13418 13.5352 4.32729C13.3421 4.52039 13.2336 4.7823 13.2336 5.05539C13.2336 5.32849 13.3421 5.5904 13.5352 5.7835C13.7283 5.97661 13.9902 6.08509 14.2633 6.08509H20.3839C20.657 6.08509 20.9189 5.97661 21.112 5.7835C21.3051 5.5904 21.4136 5.32849 21.4136 5.05539C21.4136 4.7823 21.3051 4.52039 21.112 4.32729C20.9189 4.13418 20.657 4.0257 20.3839 4.0257H14.2633Z" fill="#8800EC"/>
<path d="M1.19045 20.3238C1.2861 20.4197 1.39973 20.4957 1.52483 20.5477C1.64993 20.5996 1.78404 20.6263 1.91948 20.6263C2.05492 20.6263 2.18903 20.5996 2.31413 20.5477C2.43923 20.4957 2.55286 20.4197 2.64851 20.3238L4.55551 18.4168L6.46251 20.3238C6.65586 20.5171 6.9181 20.6257 7.19153 20.6257C7.46497 20.6257 7.72721 20.5171 7.92056 20.3238C8.11391 20.1304 8.22253 19.8682 8.22253 19.5947C8.22253 19.3213 8.11391 19.0591 7.92056 18.8657L6.01356 16.9587L7.92056 15.0517C8.11391 14.8584 8.22253 14.5961 8.22253 14.3227C8.22253 14.0492 8.11391 13.787 7.92056 13.5937C7.72721 13.4003 7.46497 13.2917 7.19153 13.2917C6.9181 13.2917 6.65586 13.4003 6.46251 13.5937L4.55551 15.5007L2.64851 13.5937C2.45516 13.4003 2.19292 13.2917 1.91948 13.2917C1.64604 13.2917 1.3838 13.4003 1.19045 13.5937C0.997102 13.787 0.88848 14.0492 0.88848 14.3227C0.88848 14.4581 0.915147 14.5921 0.96696 14.7172C1.01877 14.8423 1.09472 14.956 1.19045 15.0517L3.09745 16.9587L1.19045 18.8657C1.09456 18.9614 1.01848 19.075 0.96657 19.2001C0.91466 19.3252 0.887939 19.4593 0.887939 19.5947C0.887939 19.7302 0.91466 19.8643 0.96657 19.9894C1.01848 20.1145 1.09456 20.2281 1.19045 20.3238Z" fill="#8800EC"/>
</svg>
