<svg width="31" height="13" viewBox="0 0 31 13" fill="none" xmlns="http://www.w3.org/2000/svg">
<path d="M30.1018 1.05062C29.8099 0.656986 29.3865 0.381027 28.9085 0.272808C28.4305 0.164588 27.9296 0.231276 27.4965 0.460772L19.8069 4.71632C19.7238 5.54282 19.3392 6.30974 18.7265 6.87063C18.1137 7.43152 17.3159 7.74707 16.4853 7.75702C16.4175 7.88231 9.05813 6.24308 8.7677 6.20516C8.6774 6.18698 8.59161 6.15101 8.51536 6.09933C8.43911 6.04765 8.37391 5.98131 8.32357 5.90417C8.27323 5.82702 8.23875 5.74063 8.22216 5.65002C8.20556 5.55941 8.20718 5.4664 8.22691 5.37643C8.26445 5.19407 8.37274 5.03403 8.52807 4.93137C8.68339 4.8287 8.87307 4.79179 9.05555 4.82872L16.0921 6.3175C16.3858 6.37753 16.6896 6.36748 16.9788 6.28817C17.2679 6.20886 17.5343 6.06252 17.7564 5.86102C18.0143 5.64277 18.2056 5.35637 18.3085 5.03453C18.4114 4.7127 18.4217 4.36842 18.3382 4.04102C18.2547 3.71363 18.0807 3.41633 17.8363 3.18308C17.5918 2.94984 17.2867 2.79007 16.9557 2.72202C16.7645 2.69786 9.25507 0.933076 9.03461 0.924273H3.25499C2.57537 0.864482 1.27302 1.98167 0.71283 2.27253L0.712869 11.2964C1.26443 11.598 2.47276 12.6456 3.13558 12.5885L15.2845 12.5885C15.5625 12.5888 15.8351 12.5109 16.071 12.3638L29.519 4.0422C29.7651 3.89406 29.9774 3.69591 30.1422 3.46056C30.3069 3.22522 30.4204 2.95792 30.4753 2.67595C30.5303 2.39398 30.5254 2.10362 30.4611 1.82365C30.3967 1.54368 30.2744 1.28032 30.1018 1.05062Z" fill="#888888"/>
</svg>
