<svg width="809" height="466" viewBox="0 0 809 466" fill="none" xmlns="http://www.w3.org/2000/svg">
<rect width="809" height="466" rx="14" fill="white"/>
<rect x="486" y="375" width="274" height="56" rx="4" fill="#8800EC"/>
<path d="M574.887 409L574.005 406.696H568.317L567.435 409H565.131L569.847 396.994H572.475L577.191 409H574.887ZM571.161 398.776L568.911 404.842H573.411L571.161 398.776ZM580.503 409V396.994H585.777C588.297 396.994 589.701 398.722 589.701 400.756C589.701 402.79 588.279 404.518 585.777 404.518H582.609V409H580.503ZM587.541 400.756C587.541 399.604 586.677 398.848 585.489 398.848H582.609V402.664H585.489C586.677 402.664 587.541 401.908 587.541 400.756ZM593.454 409V396.994H598.728C601.248 396.994 602.652 398.722 602.652 400.756C602.652 402.79 601.23 404.518 598.728 404.518H595.56V409H593.454ZM600.492 400.756C600.492 399.604 599.628 398.848 598.44 398.848H595.56V402.664H598.44C599.628 402.664 600.492 401.908 600.492 400.756ZM606.405 409V396.994H608.511V407.146H613.803V409H606.405ZM618.856 409V404.014L614.194 396.994H616.606L619.918 402.142L623.194 396.994H625.606L620.962 404.014V409H618.856ZM643.908 409L637.644 400.252V409H635.538V396.994H637.698L643.836 405.508V396.994H645.942V409H643.908ZM649.953 403.006C649.953 399.424 652.491 396.796 656.091 396.796C659.691 396.796 662.229 399.424 662.229 403.006C662.229 406.588 659.691 409.216 656.091 409.216C652.491 409.216 649.953 406.588 649.953 403.006ZM660.069 403.006C660.069 400.522 658.503 398.668 656.091 398.668C653.661 398.668 652.113 400.522 652.113 403.006C652.113 405.472 653.661 407.344 656.091 407.344C658.503 407.344 660.069 405.472 660.069 403.006ZM675.085 409L672.745 400.144L670.423 409H668.173L664.735 396.994H667.093L669.433 406.246L671.917 396.994H673.591L676.075 406.246L678.397 396.994H680.755L677.335 409H675.085Z" fill="white"/>
<rect x="487" y="54" width="274" height="289" rx="16" fill="#FCF8FF"/>
<path d="M574.52 218.32V221.44H568.2C569.44 222.44 570.28 223.76 570.64 225.32H574.52V228.48H570.72C570.2 232.16 567.52 234.24 564.96 234.84L571 245H564.44L559.2 235.52H554.92V230.96H561.04C563 230.96 564.44 230 565 228.48H554.92V225.32H565.04C564.48 223.76 563.04 222.88 561.04 222.88H554.92V218.32H574.52ZM583.409 245V225.64L578.969 230.16L575.729 226.76L584.129 218.32H589.089V245H583.409ZM605.494 245V239.48H592.734V235L603.334 218.32H611.174V234.48H614.614V239.48H611.174V245H605.494ZM605.494 223.36L598.294 234.48H605.494V223.36ZM620.082 250.48L617.882 248.68C619.162 248 620.642 246.36 620.962 244.96C620.842 245 620.482 245.08 620.202 245.08C618.682 245.08 617.482 243.88 617.482 242.16C617.482 240.4 618.922 238.96 620.602 238.96C622.482 238.96 624.202 240.44 624.202 243.04C624.202 246.04 622.522 248.72 620.082 250.48ZM628.516 242.68L631.036 238.44C632.476 239.76 633.996 240.48 636.356 240.48C640.636 240.48 643.036 236.84 643.036 232.8V232.24C641.756 234.04 639.076 235.68 636.156 235.68C631.356 235.68 627.036 232.72 627.036 227.04C627.036 221.84 631.196 217.88 637.276 217.88C645.356 217.88 648.756 224.12 648.756 231.68C648.756 239.72 644.236 245.44 636.356 245.44C633.116 245.44 630.396 244.36 628.516 242.68ZM642.996 228.4C642.756 225.84 641.316 222.8 637.516 222.8C634.476 222.8 632.836 224.92 632.836 226.8C632.836 229.64 635.196 230.88 637.756 230.88C639.756 230.88 641.716 229.96 642.996 228.4ZM655.012 245L664.572 223.32H651.132V218.32H671.172V222.28L661.252 245H655.012ZM676.809 245L686.369 223.32H672.929V218.32H692.969V222.28L683.049 245H676.809Z" fill="#2A2A2A"/>
<path d="M529.583 151V134.325H541.008V136.9H532.508V141.225H540.833V143.8H532.508V148.425H541.008V151H529.583ZM555.037 155.6H552.412V149.325C551.437 150.625 550.062 151.3 548.537 151.3C545.412 151.3 543.187 148.925 543.187 144.95C543.187 140.975 545.412 138.625 548.537 138.625C550.112 138.625 551.512 139.375 552.412 140.575V138.925H555.037V155.6ZM552.412 147.35V142.575C551.837 141.675 550.537 140.95 549.312 140.95C547.237 140.95 545.912 142.625 545.912 144.95C545.912 147.3 547.237 148.975 549.312 148.975C550.537 148.975 551.837 148.225 552.412 147.35ZM566.589 151V149.4C565.714 150.375 564.214 151.3 562.314 151.3C559.714 151.3 558.439 149.95 558.439 147.475V138.925H561.064V146.525C561.064 148.4 562.014 148.975 563.489 148.975C564.814 148.975 565.964 148.225 566.589 147.4V138.925H569.214V151H566.589ZM581.123 151V149.35C580.198 150.55 578.798 151.3 577.248 151.3C574.148 151.3 571.873 148.95 571.873 144.975C571.873 141.075 574.123 138.625 577.248 138.625C578.748 138.625 580.173 139.325 581.123 140.6V138.925H583.748V151H581.123ZM581.123 147.375V142.6C580.523 141.7 579.248 140.975 577.998 140.975C575.923 140.975 574.598 142.625 574.598 144.975C574.598 147.3 575.923 148.975 577.998 148.975C579.248 148.975 580.523 148.275 581.123 147.375ZM590.775 151.3C588.75 151.3 587.675 150.2 587.675 148.2V141.225H585.675V138.925H587.675V135.625H590.3V138.925H592.75V141.225H590.3V147.55C590.3 148.375 590.7 148.975 591.45 148.975C591.95 148.975 592.425 148.775 592.625 148.55L593.25 150.525C592.775 150.975 592 151.3 590.775 151.3ZM594.383 144.95C594.383 141.45 596.933 138.625 600.508 138.625C604.133 138.625 606.458 141.4 606.458 145.2V145.825H597.133C597.333 147.65 598.708 149.15 600.983 149.15C602.158 149.15 603.558 148.675 604.408 147.825L605.608 149.55C604.408 150.7 602.633 151.3 600.708 151.3C597.083 151.3 594.383 148.775 594.383 144.95ZM600.508 140.775C598.258 140.775 597.233 142.5 597.108 143.975H603.908C603.858 142.55 602.883 140.775 600.508 140.775ZM617.549 151V149.35C616.624 150.55 615.224 151.3 613.674 151.3C610.574 151.3 608.299 148.95 608.299 144.975C608.299 141.075 610.549 138.625 613.674 138.625C615.174 138.625 616.574 139.325 617.549 140.6V134.325H620.174V151H617.549ZM617.549 147.375V142.575C616.949 141.675 615.674 140.95 614.424 140.95C612.349 140.95 611.024 142.625 611.024 144.975C611.024 147.3 612.349 148.975 614.424 148.975C615.674 148.975 616.949 148.275 617.549 147.375ZM644.471 151V138.375L639.346 151H638.096L632.996 138.375V151H630.071V134.325H634.196L638.721 145.55L643.271 134.325H647.396V151H644.471ZM656.32 151.3C652.495 151.3 650.12 148.425 650.12 144.95C650.12 141.5 652.495 138.625 656.32 138.625C660.195 138.625 662.545 141.5 662.545 144.95C662.545 148.425 660.195 151.3 656.32 151.3ZM656.32 148.975C658.57 148.975 659.82 147.1 659.82 144.95C659.82 142.825 658.57 140.95 656.32 140.95C654.095 140.95 652.845 142.825 652.845 144.95C652.845 147.1 654.095 148.975 656.32 148.975ZM673.351 151V143.45C673.351 141.575 672.401 140.95 670.926 140.95C669.576 140.95 668.426 141.75 667.826 142.575V151H665.201V138.925H667.826V140.575C668.626 139.625 670.176 138.625 672.076 138.625C674.676 138.625 675.976 140.025 675.976 142.5V151H673.351ZM683.011 151.3C680.986 151.3 679.911 150.2 679.911 148.2V141.225H677.911V138.925H679.911V135.625H682.536V138.925H684.986V141.225H682.536V147.55C682.536 148.375 682.936 148.975 683.686 148.975C684.186 148.975 684.661 148.775 684.861 148.55L685.486 150.525C685.011 150.975 684.236 151.3 683.011 151.3ZM695.544 151V143.4C695.544 141.525 694.569 140.95 693.094 140.95C691.769 140.95 690.619 141.75 689.994 142.575V151H687.369V134.325H689.994V140.575C690.794 139.625 692.369 138.625 694.269 138.625C696.869 138.625 698.169 139.975 698.169 142.45V151H695.544ZM704.678 151.3C702.628 151.3 701.578 150.2 701.578 148.2V134.325H704.203V147.55C704.203 148.375 704.603 148.975 705.353 148.975C705.853 148.975 706.303 148.775 706.503 148.55L707.128 150.525C706.653 150.975 705.878 151.3 704.678 151.3ZM708.557 154.1L709.782 152.2C710.682 153.3 712.082 153.75 713.432 153.75C715.582 153.75 716.857 152.55 716.857 150.4V149C715.982 149.975 714.482 150.9 712.582 150.9C709.982 150.9 708.707 149.55 708.707 147.075V138.925H711.332V146.125C711.332 148 712.282 148.575 713.757 148.575C715.082 148.575 716.232 147.825 716.857 147V138.925H719.482V150.4C719.482 154.025 716.907 155.9 713.432 155.9C711.407 155.9 709.882 155.325 708.557 154.1ZM529.876 181V164.325H532.801V181H529.876ZM544.421 181V173.45C544.421 171.575 543.471 170.95 541.996 170.95C540.646 170.95 539.496 171.75 538.896 172.575V181H536.271V168.925H538.896V170.575C539.696 169.625 541.246 168.625 543.146 168.625C545.746 168.625 547.046 170.025 547.046 172.5V181H544.421ZM549.405 179.425L550.605 177.525C551.455 178.4 553.13 179.225 554.705 179.225C556.28 179.225 557.08 178.65 557.08 177.75C557.08 176.7 555.805 176.325 554.33 176C552.255 175.55 549.78 175 549.78 172.3C549.78 170.325 551.48 168.625 554.53 168.625C556.58 168.625 558.13 169.35 559.23 170.325L558.13 172.175C557.405 171.35 556.055 170.725 554.555 170.725C553.18 170.725 552.305 171.225 552.305 172.075C552.305 173 553.505 173.325 554.93 173.65C557.03 174.1 559.605 174.7 559.605 177.55C559.605 179.675 557.83 181.3 554.58 181.3C552.53 181.3 550.655 180.65 549.405 179.425ZM565.872 181.3C563.847 181.3 562.772 180.2 562.772 178.2V171.225H560.772V168.925H562.772V165.625H565.397V168.925H567.847V171.225H565.397V177.55C565.397 178.375 565.797 178.975 566.547 178.975C567.047 178.975 567.522 178.775 567.722 178.55L568.347 180.525C567.872 180.975 567.097 181.3 565.872 181.3ZM578.731 181V179.35C577.806 180.55 576.406 181.3 574.856 181.3C571.756 181.3 569.481 178.95 569.481 174.975C569.481 171.075 571.731 168.625 574.856 168.625C576.356 168.625 577.781 169.325 578.731 170.6V168.925H581.356V181H578.731ZM578.731 177.375V172.6C578.131 171.7 576.856 170.975 575.606 170.975C573.531 170.975 572.206 172.625 572.206 174.975C572.206 177.3 573.531 178.975 575.606 178.975C576.856 178.975 578.131 178.275 578.731 177.375ZM587.857 181.3C585.807 181.3 584.757 180.2 584.757 178.2V164.325H587.382V177.55C587.382 178.375 587.782 178.975 588.532 178.975C589.032 178.975 589.482 178.775 589.682 178.55L590.307 180.525C589.832 180.975 589.057 181.3 587.857 181.3ZM606.686 181V173.125C606.686 171.825 606.111 170.95 604.711 170.95C603.536 170.95 602.436 171.775 601.911 172.55V181H599.286V173.125C599.286 171.825 598.711 170.95 597.286 170.95C596.136 170.95 595.061 171.775 594.511 172.575V181H591.886V168.925H594.511V170.575C595.011 169.825 596.611 168.625 598.436 168.625C600.236 168.625 601.336 169.525 601.736 170.85C602.436 169.75 604.036 168.625 605.836 168.625C608.061 168.625 609.311 169.825 609.311 172.275V181H606.686ZM611.961 174.95C611.961 171.45 614.511 168.625 618.086 168.625C621.711 168.625 624.036 171.4 624.036 175.2V175.825H614.711C614.911 177.65 616.286 179.15 618.561 179.15C619.736 179.15 621.136 178.675 621.986 177.825L623.186 179.55C621.986 180.7 620.211 181.3 618.286 181.3C614.661 181.3 611.961 178.775 611.961 174.95ZM618.086 170.775C615.836 170.775 614.811 172.5 614.686 173.975H621.486C621.436 172.55 620.461 170.775 618.086 170.775ZM634.777 181V173.45C634.777 171.575 633.827 170.95 632.352 170.95C631.002 170.95 629.852 171.75 629.252 172.575V181H626.627V168.925H629.252V170.575C630.052 169.625 631.602 168.625 633.502 168.625C636.102 168.625 637.402 170.025 637.402 172.5V181H634.777ZM644.437 181.3C642.412 181.3 641.337 180.2 641.337 178.2V171.225H639.337V168.925H641.337V165.625H643.962V168.925H646.412V171.225H643.962V177.55C643.962 178.375 644.362 178.975 645.112 178.975C645.612 178.975 646.087 178.775 646.287 178.55L646.912 180.525C646.437 180.975 645.662 181.3 644.437 181.3ZM647.745 179.425L648.945 177.525C649.795 178.4 651.47 179.225 653.045 179.225C654.62 179.225 655.42 178.65 655.42 177.75C655.42 176.7 654.145 176.325 652.67 176C650.595 175.55 648.12 175 648.12 172.3C648.12 170.325 649.82 168.625 652.87 168.625C654.92 168.625 656.47 169.35 657.57 170.325L656.47 172.175C655.745 171.35 654.395 170.725 652.895 170.725C651.52 170.725 650.645 171.225 650.645 172.075C650.645 173 651.845 173.325 653.27 173.65C655.37 174.1 657.945 174.7 657.945 177.55C657.945 179.675 656.17 181.3 652.92 181.3C650.87 181.3 648.995 180.65 647.745 179.425ZM670.133 185.975C667.783 183.1 666.358 178.95 666.358 174.925C666.358 170.9 667.783 166.775 670.133 163.875L671.758 165.1C670.108 168.2 669.208 171 669.208 174.925C669.208 178.85 670.108 181.65 671.758 184.725L670.133 185.975ZM673.992 181V164.325H685.417V166.9H676.917V171.225H685.242V173.8H676.917V178.425H685.417V181H673.992ZM702.821 181V168.375L697.696 181H696.446L691.346 168.375V181H688.421V164.325H692.546L697.071 175.55L701.621 164.325H705.746V181H702.821ZM709.295 181V164.325H712.22V181H709.295ZM716.99 174.925C716.99 171 716.09 168.2 714.415 165.1L716.04 163.875C718.415 166.775 719.84 170.9 719.84 174.925C719.84 178.95 718.415 183.1 716.04 185.975L714.415 184.725C716.09 181.65 716.99 178.85 716.99 174.925Z" fill="#2A2A2A"/>
<rect x="31" y="263.5" width="15" height="15" rx="2" fill="#FF0096"/>
<path d="M57.48 277V263.66H63.1C65.84 263.66 67.36 265.54 67.36 267.76C67.36 269.98 65.82 271.86 63.1 271.86H59.48V277H57.48ZM65.3 267.76C65.3 266.36 64.28 265.42 62.84 265.42H59.48V270.1H62.84C64.28 270.1 65.3 269.16 65.3 267.76ZM69.3736 277V267.34H71.1736V268.82C71.9136 267.86 73.0536 267.12 74.3336 267.12V268.94C74.1536 268.9 73.9536 268.88 73.7136 268.88C72.8136 268.88 71.5936 269.56 71.1736 270.28V277H69.3736ZM77.0114 265.72C76.3914 265.72 75.8514 265.22 75.8514 264.58C75.8514 263.94 76.3914 263.42 77.0114 263.42C77.6514 263.42 78.1714 263.94 78.1714 264.58C78.1714 265.22 77.6514 265.72 77.0114 265.72ZM76.1314 277V267.34H77.9314V277H76.1314ZM87.3194 277V270.82C87.3194 269.22 86.4994 268.7 85.2594 268.7C84.1394 268.7 83.1194 269.38 82.5994 270.1V277H80.7994V267.34H82.5994V268.7C83.2394 267.92 84.5194 267.1 86.0194 267.1C88.0594 267.1 89.1194 268.18 89.1194 270.22V277H87.3194ZM91.3713 272.16C91.3713 269.26 93.3713 267.1 96.2913 267.1C98.1113 267.1 99.2113 267.86 99.9113 268.8L98.7113 269.9C98.1313 269.08 97.3513 268.7 96.3713 268.7C94.4713 268.7 93.2513 270.16 93.2513 272.16C93.2513 274.16 94.4713 275.64 96.3713 275.64C97.3513 275.64 98.1313 275.24 98.7113 274.44L99.9113 275.54C99.2113 276.48 98.1113 277.24 96.2913 277.24C93.3713 277.24 91.3713 275.06 91.3713 272.16ZM102.773 265.72C102.153 265.72 101.613 265.22 101.613 264.58C101.613 263.94 102.153 263.42 102.773 263.42C103.413 263.42 103.933 263.94 103.933 264.58C103.933 265.22 103.413 265.72 102.773 265.72ZM101.893 277V267.34H103.693V277H101.893ZM108.361 280.68H106.561V267.34H108.361V268.72C109.061 267.76 110.221 267.1 111.521 267.1C114.041 267.1 115.821 269 115.821 272.16C115.821 275.32 114.041 277.24 111.521 277.24C110.261 277.24 109.141 276.66 108.361 275.6V280.68ZM113.941 272.16C113.941 270.16 112.841 268.7 111.041 268.7C109.941 268.7 108.841 269.34 108.361 270.12V274.22C108.841 274.98 109.941 275.64 111.041 275.64C112.841 275.64 113.941 274.18 113.941 272.16ZM124.984 277V275.62C124.264 276.58 123.104 277.24 121.824 277.24C119.304 277.24 117.504 275.34 117.504 272.18C117.504 269.08 119.304 267.1 121.824 267.1C123.064 267.1 124.224 267.7 124.984 268.74V267.34H126.784V277H124.984ZM124.984 274.24V270.14C124.484 269.36 123.404 268.72 122.304 268.72C120.504 268.72 119.384 270.16 119.384 272.18C119.384 274.18 120.504 275.64 122.304 275.64C123.404 275.64 124.484 275.02 124.984 274.24ZM131.967 277.24C130.427 277.24 129.667 276.38 129.667 274.86V263.66H131.467V274.46C131.467 275.14 131.787 275.64 132.407 275.64C132.827 275.64 133.187 275.46 133.367 275.26L133.847 276.62C133.467 276.98 132.887 277.24 131.967 277.24ZM149.93 277L148.85 274.24H142.31L141.23 277H139.03L144.33 263.66H146.83L152.13 277H149.93ZM145.57 265.4L142.89 272.46H148.27L145.57 265.4ZM165.43 277V270.56C165.43 269.44 164.93 268.7 163.75 268.7C162.77 268.7 161.81 269.38 161.35 270.08V277H159.55V270.56C159.55 269.44 159.07 268.7 157.85 268.7C156.91 268.7 155.97 269.4 155.49 270.1V277H153.69V267.34H155.49V268.7C155.89 268.1 157.17 267.1 158.61 267.1C160.07 267.1 160.93 267.86 161.23 268.9C161.79 268 163.07 267.1 164.49 267.1C166.27 267.1 167.23 268.08 167.23 270.02V277H165.43ZM174.376 277.24C171.376 277.24 169.496 274.96 169.496 272.16C169.496 269.38 171.376 267.1 174.376 267.1C177.396 267.1 179.256 269.38 179.256 272.16C179.256 274.96 177.396 277.24 174.376 277.24ZM174.376 275.64C176.316 275.64 177.376 274 177.376 272.16C177.376 270.34 176.316 268.7 174.376 268.7C172.456 268.7 171.376 270.34 171.376 272.16C171.376 274 172.456 275.64 174.376 275.64ZM188.062 277V275.68C187.322 276.48 186.102 277.24 184.622 277.24C182.562 277.24 181.542 276.2 181.542 274.16V267.34H183.342V273.56C183.342 275.16 184.142 275.64 185.382 275.64C186.502 275.64 187.522 275 188.062 274.28V267.34H189.862V277H188.062ZM199.233 277V270.82C199.233 269.22 198.413 268.7 197.173 268.7C196.053 268.7 195.033 269.38 194.513 270.1V277H192.713V267.34H194.513V268.7C195.153 267.92 196.433 267.1 197.933 267.1C199.973 267.1 201.033 268.18 201.033 270.22V277H199.233ZM206.545 277.24C205.025 277.24 204.245 276.38 204.245 274.86V268.92H202.645V267.34H204.245V264.7H206.045V267.34H208.005V268.92H206.045V274.46C206.045 275.14 206.365 275.64 206.985 275.64C207.405 275.64 207.785 275.46 207.965 275.26L208.425 276.62C208.045 276.98 207.485 277.24 206.545 277.24Z" fill="#2A2A2A"/>
<path d="M288.151 263.66V265H284.891C285.611 265.54 286.071 266.3 286.231 267.16H288.151V268.5H286.251C286.011 270.44 284.591 271.52 283.131 271.76L286.391 277H283.691L280.731 272.02H278.551V269.96H281.611C282.671 269.96 283.491 269.4 283.791 268.5H278.551V267.16H283.811C283.551 266.24 282.711 265.72 281.611 265.72H278.551V263.66H288.151ZM289.078 275.08L290.338 273.54C291.198 274.54 292.618 275.16 294.038 275.16C295.798 275.16 296.818 274.36 296.818 273.12C296.818 271.8 295.758 271.24 293.858 271.24C293.298 271.24 292.518 271.24 292.318 271.26V269.16C292.558 269.18 293.338 269.18 293.858 269.18C295.418 269.18 296.598 268.64 296.598 267.42C296.598 266.18 295.398 265.54 293.898 265.54C292.538 265.54 291.418 266.06 290.458 267.02L289.258 265.56C290.278 264.36 291.898 263.46 294.118 263.46C296.998 263.46 298.938 264.82 298.938 267.06C298.938 268.84 297.418 269.88 296.038 270.12C297.338 270.24 299.138 271.3 299.138 273.36C299.138 275.62 297.198 277.24 294.118 277.24C291.738 277.24 289.978 276.28 289.078 275.08ZM302.162 279.66L301.222 278.88C301.862 278.5 302.522 277.68 302.662 277C302.602 277.02 302.442 277.06 302.322 277.06C301.642 277.06 301.122 276.54 301.122 275.8C301.122 275.04 301.742 274.42 302.482 274.42C303.302 274.42 304.042 275.08 304.042 276.24C304.042 277.62 303.262 278.88 302.162 279.66ZM305.804 270.34C305.804 266.98 307.404 263.46 311.144 263.46C314.884 263.46 316.484 266.98 316.484 270.34C316.484 273.7 314.884 277.24 311.144 277.24C307.404 277.24 305.804 273.7 305.804 270.34ZM314.104 270.34C314.104 267.8 313.324 265.54 311.144 265.54C308.964 265.54 308.184 267.8 308.184 270.34C308.184 272.88 308.964 275.16 311.144 275.16C313.324 275.16 314.104 272.88 314.104 270.34ZM318.129 270.34C318.129 266.98 319.729 263.46 323.469 263.46C327.209 263.46 328.809 266.98 328.809 270.34C328.809 273.7 327.209 277.24 323.469 277.24C319.729 277.24 318.129 273.7 318.129 270.34ZM326.429 270.34C326.429 267.8 325.649 265.54 323.469 265.54C321.289 265.54 320.509 267.8 320.509 270.34C320.509 272.88 321.289 275.16 323.469 275.16C325.649 275.16 326.429 272.88 326.429 270.34ZM331.205 279.66L330.265 278.88C330.905 278.5 331.565 277.68 331.705 277C331.645 277.02 331.485 277.06 331.365 277.06C330.685 277.06 330.165 276.54 330.165 275.8C330.165 275.04 330.785 274.42 331.525 274.42C332.345 274.42 333.085 275.08 333.085 276.24C333.085 277.62 332.305 278.88 331.205 279.66ZM334.847 270.34C334.847 266.98 336.447 263.46 340.187 263.46C343.927 263.46 345.527 266.98 345.527 270.34C345.527 273.7 343.927 277.24 340.187 277.24C336.447 277.24 334.847 273.7 334.847 270.34ZM343.147 270.34C343.147 267.8 342.367 265.54 340.187 265.54C338.007 265.54 337.227 267.8 337.227 270.34C337.227 272.88 338.007 275.16 340.187 275.16C342.367 275.16 343.147 272.88 343.147 270.34ZM347.172 270.34C347.172 266.98 348.772 263.46 352.512 263.46C356.252 263.46 357.852 266.98 357.852 270.34C357.852 273.7 356.252 277.24 352.512 277.24C348.772 277.24 347.172 273.7 347.172 270.34ZM355.472 270.34C355.472 267.8 354.692 265.54 352.512 265.54C350.332 265.54 349.552 267.8 349.552 270.34C349.552 272.88 350.332 275.16 352.512 275.16C354.692 275.16 355.472 272.88 355.472 270.34ZM359.496 270.34C359.496 266.98 361.096 263.46 364.836 263.46C368.576 263.46 370.176 266.98 370.176 270.34C370.176 273.7 368.576 277.24 364.836 277.24C361.096 277.24 359.496 273.7 359.496 270.34ZM367.796 270.34C367.796 267.8 367.016 265.54 364.836 265.54C362.656 265.54 361.876 267.8 361.876 270.34C361.876 272.88 362.656 275.16 364.836 275.16C367.016 275.16 367.796 272.88 367.796 270.34Z" fill="#8800EC"/>
<rect x="31" y="333.5" width="15" height="15" rx="2" fill="#BFBFBF"/>
<path d="M57.48 347V333.66H59.48V347H57.48ZM68.9405 347V340.82C68.9405 339.22 68.1205 338.7 66.8805 338.7C65.7605 338.7 64.7405 339.38 64.2205 340.1V347H62.4205V337.34H64.2205V338.7C64.8605 337.92 66.1405 337.1 67.6405 337.1C69.6805 337.1 70.7405 338.18 70.7405 340.22V347H68.9405ZM76.2523 347.24C74.7323 347.24 73.9523 346.38 73.9523 344.86V338.92H72.3523V337.34H73.9523V334.7H75.7523V337.34H77.7123V338.92H75.7523V344.46C75.7523 345.14 76.0723 345.64 76.6923 345.64C77.1123 345.64 77.4923 345.46 77.6723 345.26L78.1323 346.62C77.7523 346.98 77.1923 347.24 76.2523 347.24ZM79.1056 342.16C79.1056 339.36 81.1256 337.1 83.9456 337.1C86.8456 337.1 88.6456 339.36 88.6456 342.32V342.76H81.0056C81.1456 344.4 82.3456 345.76 84.2856 345.76C85.3056 345.76 86.4256 345.36 87.1456 344.62L87.9856 345.8C87.0256 346.74 85.6656 347.24 84.1056 347.24C81.2256 347.24 79.1056 345.2 79.1056 342.16ZM83.9456 338.58C82.0056 338.58 81.0856 340.14 80.9856 341.46H86.8856C86.8456 340.18 85.9856 338.58 83.9456 338.58ZM90.897 347V337.34H92.697V338.82C93.437 337.86 94.577 337.12 95.857 337.12V338.94C95.677 338.9 95.477 338.88 95.237 338.88C94.337 338.88 93.117 339.56 92.697 340.28V347H90.897ZM97.0548 342.16C97.0548 339.36 99.0748 337.1 101.895 337.1C104.795 337.1 106.595 339.36 106.595 342.32V342.76H98.9548C99.0948 344.4 100.295 345.76 102.235 345.76C103.255 345.76 104.375 345.36 105.095 344.62L105.935 345.8C104.975 346.74 103.615 347.24 102.055 347.24C99.1748 347.24 97.0548 345.2 97.0548 342.16ZM101.895 338.58C99.9548 338.58 99.0348 340.14 98.9348 341.46H104.835C104.795 340.18 103.935 338.58 101.895 338.58ZM108.006 345.74L108.866 344.42C109.526 345.14 110.806 345.8 112.106 345.8C113.466 345.8 114.186 345.24 114.186 344.42C114.186 343.46 113.086 343.14 111.846 342.86C110.206 342.48 108.286 342.04 108.286 339.96C108.286 338.42 109.606 337.1 111.966 337.1C113.626 337.1 114.826 337.7 115.646 338.48L114.846 339.74C114.286 339.06 113.206 338.56 111.986 338.56C110.766 338.56 110.006 339.04 110.006 339.82C110.006 340.66 111.046 340.94 112.246 341.22C113.926 341.6 115.926 342.06 115.926 344.28C115.926 345.94 114.566 347.24 112.026 347.24C110.406 347.24 108.986 346.74 108.006 345.74ZM120.862 347.24C119.342 347.24 118.562 346.38 118.562 344.86V338.92H116.962V337.34H118.562V334.7H120.362V337.34H122.322V338.92H120.362V344.46C120.362 345.14 120.682 345.64 121.302 345.64C121.722 345.64 122.102 345.46 122.282 345.26L122.742 346.62C122.362 346.98 121.802 347.24 120.862 347.24ZM139.031 347L137.951 344.24H131.411L130.331 347H128.131L133.431 333.66H135.931L141.231 347H139.031ZM134.671 335.4L131.991 342.46H137.371L134.671 335.4ZM154.532 347V340.56C154.532 339.44 154.032 338.7 152.852 338.7C151.872 338.7 150.912 339.38 150.452 340.08V347H148.652V340.56C148.652 339.44 148.172 338.7 146.952 338.7C146.012 338.7 145.072 339.4 144.592 340.1V347H142.792V337.34H144.592V338.7C144.992 338.1 146.272 337.1 147.712 337.1C149.172 337.1 150.032 337.86 150.332 338.9C150.892 338 152.172 337.1 153.592 337.1C155.372 337.1 156.332 338.08 156.332 340.02V347H154.532ZM163.478 347.24C160.478 347.24 158.598 344.96 158.598 342.16C158.598 339.38 160.478 337.1 163.478 337.1C166.498 337.1 168.358 339.38 168.358 342.16C168.358 344.96 166.498 347.24 163.478 347.24ZM163.478 345.64C165.418 345.64 166.478 344 166.478 342.16C166.478 340.34 165.418 338.7 163.478 338.7C161.558 338.7 160.478 340.34 160.478 342.16C160.478 344 161.558 345.64 163.478 345.64ZM177.163 347V345.68C176.423 346.48 175.203 347.24 173.723 347.24C171.663 347.24 170.643 346.2 170.643 344.16V337.34H172.443V343.56C172.443 345.16 173.243 345.64 174.483 345.64C175.603 345.64 176.623 345 177.163 344.28V337.34H178.963V347H177.163ZM188.335 347V340.82C188.335 339.22 187.515 338.7 186.275 338.7C185.155 338.7 184.135 339.38 183.615 340.1V347H181.815V337.34H183.615V338.7C184.255 337.92 185.535 337.1 187.035 337.1C189.075 337.1 190.135 338.18 190.135 340.22V347H188.335ZM195.647 347.24C194.127 347.24 193.347 346.38 193.347 344.86V338.92H191.747V337.34H193.347V334.7H195.147V337.34H197.107V338.92H195.147V344.46C195.147 345.14 195.467 345.64 196.087 345.64C196.507 345.64 196.887 345.46 197.067 345.26L197.527 346.62C197.147 346.98 196.587 347.24 195.647 347.24Z" fill="#2A2A2A"/>
<path d="M306.959 333.66V335H303.699C304.419 335.54 304.879 336.3 305.039 337.16H306.959V338.5H305.059C304.819 340.44 303.399 341.52 301.939 341.76L305.199 347H302.499L299.539 342.02H297.359V339.96H300.419C301.479 339.96 302.299 339.4 302.599 338.5H297.359V337.16H302.619C302.359 336.24 301.519 335.72 300.419 335.72H297.359V333.66H306.959ZM308.526 345.18L309.866 343.58C310.766 344.6 311.966 345.16 313.466 345.16C315.146 345.16 316.206 344.12 316.206 342.82C316.206 341.38 315.166 340.44 313.526 340.44C312.386 340.44 311.446 340.8 310.606 341.6L308.946 341.12V333.66H317.686V335.72H311.286V339.58C311.926 338.94 313.026 338.42 314.306 338.42C316.546 338.42 318.566 340 318.566 342.72C318.566 345.5 316.466 347.24 313.486 347.24C311.186 347.24 309.606 346.46 308.526 345.18ZM320.878 345.74L321.958 343.98C322.658 344.7 323.438 345.14 324.698 345.14C327.118 345.14 328.218 342.94 328.218 340.76V340.36C327.598 341.26 326.198 342.24 324.638 342.24C322.238 342.24 320.158 340.76 320.158 337.92C320.158 335.46 322.098 333.44 325.078 333.44C328.998 333.44 330.578 336.62 330.578 340.34C330.578 344.18 328.558 347.22 324.698 347.22C323.058 347.22 321.778 346.64 320.878 345.74ZM328.178 338.66C328.058 337.22 327.258 335.52 325.198 335.52C323.458 335.52 322.538 336.78 322.538 337.84C322.538 339.48 323.818 340.22 325.258 340.22C326.398 340.22 327.518 339.62 328.178 338.66ZM332.982 349.66L332.042 348.88C332.682 348.5 333.342 347.68 333.482 347C333.422 347.02 333.262 347.06 333.142 347.06C332.462 347.06 331.942 346.54 331.942 345.8C331.942 345.04 332.562 344.42 333.302 344.42C334.122 344.42 334.862 345.08 334.862 346.24C334.862 347.62 334.082 348.88 332.982 349.66ZM342.725 347V343.98H336.365V342.1L341.845 333.66H345.065V341.92H346.845V343.98H345.065V347H342.725ZM342.725 335.76L338.665 341.92H342.725V335.76ZM348.526 345.18L349.866 343.58C350.766 344.6 351.966 345.16 353.466 345.16C355.146 345.16 356.206 344.12 356.206 342.82C356.206 341.38 355.166 340.44 353.526 340.44C352.386 340.44 351.446 340.8 350.606 341.6L348.946 341.12V333.66H357.686V335.72H351.286V339.58C351.926 338.94 353.026 338.42 354.306 338.42C356.546 338.42 358.566 340 358.566 342.72C358.566 345.5 356.466 347.24 353.486 347.24C351.186 347.24 349.606 346.46 348.526 345.18ZM366.318 347V343.98H359.958V342.1L365.438 333.66H368.658V341.92H370.438V343.98H368.658V347H366.318ZM366.318 335.76L362.258 341.92H366.318V335.76Z" fill="#8800EC"/>
<path d="M35.74 417V405.42H31.6V403.66H41.86V405.42H37.74V417H35.74ZM45.9778 417.24C42.9778 417.24 41.0978 414.96 41.0978 412.16C41.0978 409.38 42.9778 407.1 45.9778 407.1C48.9978 407.1 50.8578 409.38 50.8578 412.16C50.8578 414.96 48.9978 417.24 45.9778 417.24ZM45.9778 415.64C47.9178 415.64 48.9778 414 48.9778 412.16C48.9778 410.34 47.9178 408.7 45.9778 408.7C44.0578 408.7 42.9778 410.34 42.9778 412.16C42.9778 414 44.0578 415.64 45.9778 415.64ZM55.8031 417.24C54.2831 417.24 53.5031 416.38 53.5031 414.86V408.92H51.9031V407.34H53.5031V404.7H55.3031V407.34H57.2631V408.92H55.3031V414.46C55.3031 415.14 55.6231 415.64 56.2431 415.64C56.6631 415.64 57.0431 415.46 57.2231 415.26L57.6831 416.62C57.3031 416.98 56.7431 417.24 55.8031 417.24ZM66.1364 417V415.62C65.4164 416.58 64.2564 417.24 62.9764 417.24C60.4564 417.24 58.6564 415.34 58.6564 412.18C58.6564 409.08 60.4564 407.1 62.9764 407.1C64.2164 407.1 65.3764 407.7 66.1364 408.74V407.34H67.9364V417H66.1364ZM66.1364 414.24V410.14C65.6364 409.36 64.5564 408.72 63.4564 408.72C61.6564 408.72 60.5364 410.16 60.5364 412.18C60.5364 414.18 61.6564 415.64 63.4564 415.64C64.5564 415.64 65.6364 415.02 66.1364 414.24ZM73.1189 417.24C71.5789 417.24 70.8189 416.38 70.8189 414.86V403.66H72.6189V414.46C72.6189 415.14 72.9389 415.64 73.5589 415.64C73.9789 415.64 74.3389 415.46 74.5189 415.26L74.9989 416.62C74.6189 416.98 74.0389 417.24 73.1189 417.24ZM91.082 417L90.002 414.24H83.462L82.382 417H80.182L85.482 403.66H87.982L93.282 417H91.082ZM86.722 405.4L84.042 412.46H89.422L86.722 405.4ZM106.582 417V410.56C106.582 409.44 106.082 408.7 104.902 408.7C103.922 408.7 102.962 409.38 102.502 410.08V417H100.702V410.56C100.702 409.44 100.222 408.7 99.0023 408.7C98.0623 408.7 97.1223 409.4 96.6423 410.1V417H94.8423V407.34H96.6423V408.7C97.0423 408.1 98.3223 407.1 99.7623 407.1C101.222 407.1 102.082 407.86 102.382 408.9C102.942 408 104.222 407.1 105.642 407.1C107.422 407.1 108.382 408.08 108.382 410.02V417H106.582ZM115.529 417.24C112.529 417.24 110.649 414.96 110.649 412.16C110.649 409.38 112.529 407.1 115.529 407.1C118.549 407.1 120.409 409.38 120.409 412.16C120.409 414.96 118.549 417.24 115.529 417.24ZM115.529 415.64C117.469 415.64 118.529 414 118.529 412.16C118.529 410.34 117.469 408.7 115.529 408.7C113.609 408.7 112.529 410.34 112.529 412.16C112.529 414 113.609 415.64 115.529 415.64ZM129.214 417V415.68C128.474 416.48 127.254 417.24 125.774 417.24C123.714 417.24 122.694 416.2 122.694 414.16V407.34H124.494V413.56C124.494 415.16 125.294 415.64 126.534 415.64C127.654 415.64 128.674 415 129.214 414.28V407.34H131.014V417H129.214ZM140.386 417V410.82C140.386 409.22 139.566 408.7 138.326 408.7C137.206 408.7 136.186 409.38 135.666 410.1V417H133.866V407.34H135.666V408.7C136.306 407.92 137.586 407.1 139.086 407.1C141.126 407.1 142.186 408.18 142.186 410.22V417H140.386ZM147.698 417.24C146.178 417.24 145.398 416.38 145.398 414.86V408.92H143.798V407.34H145.398V404.7H147.198V407.34H149.158V408.92H147.198V414.46C147.198 415.14 147.518 415.64 148.138 415.64C148.558 415.64 148.938 415.46 149.118 415.26L149.578 416.62C149.198 416.98 148.638 417.24 147.698 417.24ZM156.347 417V403.66H161.967C164.707 403.66 166.227 405.54 166.227 407.76C166.227 409.98 164.687 411.86 161.967 411.86H158.347V417H156.347ZM164.167 407.76C164.167 406.36 163.147 405.42 161.707 405.42H158.347V410.1H161.707C163.147 410.1 164.167 409.16 164.167 407.76ZM174.847 417V415.62C174.127 416.58 172.967 417.24 171.687 417.24C169.167 417.24 167.367 415.34 167.367 412.18C167.367 409.08 169.167 407.1 171.687 407.1C172.927 407.1 174.087 407.7 174.847 408.74V407.34H176.647V417H174.847ZM174.847 414.24V410.14C174.347 409.36 173.267 408.72 172.167 408.72C170.367 408.72 169.247 410.16 169.247 412.18C169.247 414.18 170.367 415.64 172.167 415.64C173.267 415.64 174.347 415.02 174.847 414.24ZM179.41 419.48L180.27 418.16C181.01 419.06 182.09 419.44 183.21 419.44C184.99 419.44 186.05 418.42 186.05 416.64V415.42C185.31 416.24 184.09 416.98 182.61 416.98C180.55 416.98 179.53 415.96 179.53 413.92V407.34H181.33V413.3C181.33 414.9 182.13 415.38 183.37 415.38C184.49 415.38 185.51 414.74 186.05 414.02V407.34H187.85V416.64C187.85 419.52 185.79 420.92 183.21 420.92C181.59 420.92 180.43 420.46 179.41 419.48ZM197.582 417V415.62C196.862 416.58 195.702 417.24 194.422 417.24C191.902 417.24 190.102 415.34 190.102 412.18C190.102 409.08 191.902 407.1 194.422 407.1C195.662 407.1 196.822 407.7 197.582 408.74V407.34H199.382V417H197.582ZM197.582 414.24V410.14C197.082 409.36 196.002 408.72 194.902 408.72C193.102 408.72 191.982 410.16 191.982 412.18C191.982 414.18 193.102 415.64 194.902 415.64C196.002 415.64 197.082 415.02 197.582 414.24ZM202.264 417V403.66H204.064V408.74C204.824 407.7 205.964 407.1 207.224 407.1C209.744 407.1 211.524 409.08 211.524 412.18C211.524 415.34 209.724 417.24 207.224 417.24C205.924 417.24 204.784 416.58 204.064 415.62V417H202.264ZM204.064 414.24C204.544 415.02 205.644 415.64 206.744 415.64C208.544 415.64 209.664 414.2 209.664 412.18C209.664 410.16 208.544 408.7 206.744 408.7C205.644 408.7 204.544 409.36 204.064 410.14V414.24ZM216.127 417.24C214.587 417.24 213.827 416.38 213.827 414.86V403.66H215.627V414.46C215.627 415.14 215.947 415.64 216.567 415.64C216.987 415.64 217.347 415.46 217.527 415.26L218.007 416.62C217.627 416.98 217.047 417.24 216.127 417.24ZM218.774 412.16C218.774 409.36 220.794 407.1 223.614 407.1C226.514 407.1 228.314 409.36 228.314 412.32V412.76H220.674C220.814 414.4 222.014 415.76 223.954 415.76C224.974 415.76 226.094 415.36 226.814 414.62L227.654 415.8C226.694 416.74 225.334 417.24 223.774 417.24C220.894 417.24 218.774 415.2 218.774 412.16ZM223.614 408.58C221.674 408.58 220.754 410.14 220.654 411.46H226.554C226.514 410.18 225.654 408.58 223.614 408.58Z" fill="#2A2A2A"/>
<path d="M290.573 403.66V405H287.313C288.033 405.54 288.493 406.3 288.653 407.16H290.573V408.5H288.673C288.433 410.44 287.013 411.52 285.553 411.76L288.813 417H286.113L283.153 412.02H280.973V409.96H284.033C285.093 409.96 285.913 409.4 286.213 408.5H280.973V407.16H286.233C285.973 406.24 285.133 405.72 284.033 405.72H280.973V403.66H290.573ZM291.5 415.08L292.76 413.54C293.62 414.54 295.04 415.16 296.46 415.16C298.22 415.16 299.24 414.36 299.24 413.12C299.24 411.8 298.18 411.24 296.28 411.24C295.72 411.24 294.94 411.24 294.74 411.26V409.16C294.98 409.18 295.76 409.18 296.28 409.18C297.84 409.18 299.02 408.64 299.02 407.42C299.02 406.18 297.82 405.54 296.32 405.54C294.96 405.54 293.84 406.06 292.88 407.02L291.68 405.56C292.7 404.36 294.32 403.46 296.54 403.46C299.42 403.46 301.36 404.82 301.36 407.06C301.36 408.84 299.84 409.88 298.46 410.12C299.76 410.24 301.56 411.3 301.56 413.36C301.56 415.62 299.62 417.24 296.54 417.24C294.16 417.24 292.4 416.28 291.5 415.08ZM304.584 419.66L303.644 418.88C304.284 418.5 304.944 417.68 305.084 417C305.024 417.02 304.864 417.06 304.744 417.06C304.064 417.06 303.544 416.54 303.544 415.8C303.544 415.04 304.164 414.42 304.904 414.42C305.724 414.42 306.464 415.08 306.464 416.24C306.464 417.62 305.684 418.88 304.584 419.66ZM308.526 415.18L309.866 413.58C310.766 414.6 311.966 415.16 313.466 415.16C315.146 415.16 316.206 414.12 316.206 412.82C316.206 411.38 315.166 410.44 313.526 410.44C312.386 410.44 311.446 410.8 310.606 411.6L308.946 411.12V403.66H317.686V405.72H311.286V409.58C311.926 408.94 313.026 408.42 314.306 408.42C316.546 408.42 318.566 410 318.566 412.72C318.566 415.5 316.466 417.24 313.486 417.24C311.186 417.24 309.606 416.46 308.526 415.18ZM320.878 415.74L321.958 413.98C322.658 414.7 323.438 415.14 324.698 415.14C327.118 415.14 328.218 412.94 328.218 410.76V410.36C327.598 411.26 326.198 412.24 324.638 412.24C322.238 412.24 320.158 410.76 320.158 407.92C320.158 405.46 322.098 403.44 325.078 403.44C328.998 403.44 330.578 406.62 330.578 410.34C330.578 414.18 328.558 417.22 324.698 417.22C323.058 417.22 321.778 416.64 320.878 415.74ZM328.178 408.66C328.058 407.22 327.258 405.52 325.198 405.52C323.458 405.52 322.538 406.78 322.538 407.84C322.538 409.48 323.818 410.22 325.258 410.22C326.398 410.22 327.518 409.62 328.178 408.66ZM332.982 419.66L332.042 418.88C332.682 418.5 333.342 417.68 333.482 417C333.422 417.02 333.262 417.06 333.142 417.06C332.462 417.06 331.942 416.54 331.942 415.8C331.942 415.04 332.562 414.42 333.302 414.42C334.122 414.42 334.862 415.08 334.862 416.24C334.862 417.62 334.082 418.88 332.982 419.66ZM342.725 417V413.98H336.365V412.1L341.845 403.66H345.065V411.92H346.845V413.98H345.065V417H342.725ZM342.725 405.76L338.665 411.92H342.725V405.76ZM348.526 415.18L349.866 413.58C350.766 414.6 351.966 415.16 353.466 415.16C355.146 415.16 356.206 414.12 356.206 412.82C356.206 411.38 355.166 410.44 353.526 410.44C352.386 410.44 351.446 410.8 350.606 411.6L348.946 411.12V403.66H357.686V405.72H351.286V409.58C351.926 408.94 353.026 408.42 354.306 408.42C356.546 408.42 358.566 410 358.566 412.72C358.566 415.5 356.466 417.24 353.486 417.24C351.186 417.24 349.606 416.46 348.526 415.18ZM366.318 417V413.98H359.958V412.1L365.438 403.66H368.658V411.92H370.438V413.98H368.658V417H366.318ZM366.318 405.76L362.258 411.92H366.318V405.76Z" fill="#8800EC"/>
<g clip-path="url(#clip0_1_3749)">
<path d="M330 198.5C330 164.154 316.409 131.216 292.217 106.93C268.025 82.6437 235.213 69 201 69C166.787 69 133.975 82.6437 109.783 106.93C85.591 131.216 72 164.154 72 198.5H110.7C110.7 174.458 120.214 151.401 137.148 134.401C154.083 117.401 177.051 107.85 201 107.85C224.949 107.85 247.917 117.401 264.852 134.401C281.786 151.401 291.3 174.458 291.3 198.5H330Z" fill="#FF0096"/>
<path d="M330 198.5C330 190.479 329.258 182.475 327.783 174.592L289.748 181.764C290.78 187.283 291.3 192.885 291.3 198.5H330Z" fill="#BFBFBF"/>
</g>
<defs>
<clipPath id="clip0_1_3749">
<rect width="346" height="189" fill="white" transform="translate(28 40)"/>
</clipPath>
</defs>
</svg>
