<svg width="38" height="17" viewBox="0 0 38 17" fill="none" xmlns="http://www.w3.org/2000/svg">
<path d="M1.41666 14.4758H6.12485C8.23081 14.4758 10.3594 14.6952 12.409 15.1175C16.0345 15.8644 19.8518 15.9549 23.5145 15.362C25.3204 15.0697 27.0959 14.6227 28.7031 13.847C30.1539 13.1467 31.9311 12.1596 33.1248 11.054C34.3169 9.94997 35.5583 8.1431 36.4394 6.73074C37.195 5.51963 36.8295 4.03375 35.6344 3.13135C34.3069 2.12897 32.3369 2.12916 31.0096 3.13181L27.2446 5.97591C25.7855 7.07817 24.1916 8.09282 22.2929 8.39567C22.0646 8.43208 21.8253 8.46526 21.5757 8.49418M21.5757 8.49418C21.5006 8.50288 21.4245 8.5112 21.3475 8.51911M21.5757 8.49418C21.8795 8.42908 22.1811 8.24178 22.4641 7.99481C23.8041 6.82524 23.8888 4.85418 22.7261 3.5482C22.4564 3.24518 22.1407 2.99249 21.7897 2.78314C15.9619 -0.692801 6.89461 1.95461 1.41666 5.83943M21.5757 8.49418C21.4997 8.51047 21.4235 8.51911 21.3475 8.51911M21.3475 8.51911C20.2572 8.63105 18.9816 8.65999 17.5662 8.52634" stroke="#8800EC" stroke-width="2" stroke-linecap="round"/>
</svg>
