<svg width="24" height="19" viewBox="0 0 24 19" fill="none" xmlns="http://www.w3.org/2000/svg">
<path d="M8.1453 15.3379L7.55624 16.146L8.1453 15.3379ZM12 3.47118L11.3233 4.20741C11.7059 4.5591 12.2941 4.5591 12.6767 4.20741L12 3.47118ZM15.8547 15.3379L16.4438 16.146L15.8547 15.3379ZM12 17.1583L12 18.1583L12 17.1583ZM8.73437 14.5298C7.28015 13.4698 5.70797 12.166 4.50916 10.7763C3.28631 9.35883 2.58334 8.00278 2.58334 6.82245H0.583344C0.583344 8.73606 1.67822 10.5566 2.99479 12.0827C4.33539 13.6368 6.04419 15.0438 7.55624 16.146L8.73437 14.5298ZM2.58334 6.82245C2.58334 4.40699 3.79234 2.91252 5.35288 2.38735C6.94884 1.85026 9.18278 2.2399 11.3233 4.20741L12.6767 2.73495C10.1299 0.39394 7.15551 -0.329506 4.71497 0.491808C2.23901 1.32504 0.583344 3.66047 0.583344 6.82245H2.58334ZM16.4438 16.146C17.9558 15.0438 19.6646 13.6368 21.0052 12.0828C22.3218 10.5566 23.4167 8.73607 23.4167 6.82242H21.4167C21.4167 8.00279 20.7137 9.35886 19.4909 10.7764C18.2921 12.166 16.7199 13.4698 15.2657 14.5298L16.4438 16.146ZM23.4167 6.82242C23.4167 3.66045 21.761 1.32503 19.285 0.491803C16.8445 -0.329506 13.8701 0.39394 11.3233 2.73494L12.6767 4.20741C14.8172 2.2399 17.0512 1.85026 18.6471 2.38735C20.2077 2.91251 21.4167 4.40698 21.4167 6.82242H23.4167ZM7.55624 16.146C9.16238 17.3168 10.2604 18.1583 12 18.1583L12 16.1583C11.0247 16.1583 10.4579 15.7862 8.73437 14.5298L7.55624 16.146ZM15.2657 14.5298C13.5422 15.7862 12.9754 16.1583 12 16.1583L12 18.1583C13.7396 18.1583 14.8377 17.3168 16.4438 16.146L15.2657 14.5298Z" fill="#8800EC"/>
</svg>
