<svg width="60" height="60" viewBox="0 0 60 60" fill="none" xmlns="http://www.w3.org/2000/svg">
<rect width="60" height="60" rx="20" fill="#EEFFEB"/>
<path fill-rule="evenodd" clip-rule="evenodd" d="M17.8816 32.5078C21.5888 31.3863 24.4548 31.1682 29.7508 34.6417L36.4174 33.1931C38.3022 32.7882 38.6916 34.1277 38.9875 35.0935L30.7944 39.2368C30.1402 39.6573 30.5919 40.3427 31.1059 40.109L39.891 35.7009L40.1246 34.8131L47.5234 29.6262C49.2212 28.4424 49.6106 29.7819 50 30.6854L41.8847 38.9097L33.2243 43.3645C32.0716 43.9564 30.9346 44.1589 29.6573 44.0187L17.8816 42.6791V32.5078ZM29.7041 19.2056C29.7041 19.8287 29.6417 20.3894 29.5016 20.9034C29.3614 21.4019 29.1433 21.838 28.8474 22.1963C28.5514 22.5545 28.1776 22.8349 27.7259 23.0218C27.2741 23.2243 26.729 23.3178 26.0903 23.3178C25.4206 23.3178 24.8598 23.2243 24.4081 23.0218C23.9564 22.8193 23.5981 22.5545 23.3178 22.1963C23.053 21.838 22.866 21.4174 22.757 20.9346C22.648 20.4361 22.5857 19.9065 22.5857 19.3146C22.5857 18.7227 22.648 18.1776 22.7882 17.6791C22.9283 17.1807 23.1308 16.7601 23.4268 16.3863C23.7072 16.028 24.081 15.7321 24.5483 15.5452C25 15.3427 25.5452 15.2336 26.1838 15.2336C26.8847 15.2336 27.4766 15.3427 27.9283 15.5607C28.3801 15.7788 28.7383 16.0592 29.0031 16.4174C29.2679 16.7757 29.4548 17.2118 29.5483 17.6947C29.6573 18.1776 29.7041 18.6916 29.7041 19.2212V19.2056ZM27.3364 19.2835C27.3364 18.8474 27.3053 18.4735 27.2741 18.1776C27.2274 17.866 27.1495 17.6324 27.0561 17.4455C26.9626 17.2586 26.838 17.1184 26.6822 17.0249C26.5265 16.947 26.3396 16.9003 26.1371 16.9003C25.9346 16.9003 25.7632 16.947 25.6231 17.0249C25.4829 17.1028 25.3583 17.243 25.2492 17.4299C25.1558 17.6168 25.0779 17.8505 25.0312 18.162C24.9844 18.4579 24.9688 18.8162 24.9688 19.2523C24.9688 19.7508 25 20.1402 25.0467 20.4517C25.109 20.7632 25.1869 21.0125 25.2804 21.1838C25.3894 21.3551 25.514 21.4953 25.6542 21.5576C25.81 21.6199 25.9813 21.6667 26.1682 21.6667C26.4019 21.6667 26.5888 21.6199 26.729 21.5265C26.8847 21.433 26.9938 21.2928 27.0872 21.1059C27.1807 20.919 27.243 20.6698 27.2741 20.3738C27.3053 20.0779 27.3364 19.7196 27.3364 19.3146V19.2835ZM38.972 26.9003C38.972 27.5234 38.9097 28.0841 38.7695 28.5981C38.6293 29.0966 38.4112 29.5327 38.1153 29.891C37.8193 30.2492 37.4455 30.5296 36.9938 30.7165C36.5421 30.919 35.9969 31.0125 35.3583 31.0125C34.6885 31.0125 34.1277 30.919 33.676 30.7165C33.2243 30.514 32.866 30.2492 32.5857 29.891C32.3209 29.5327 32.134 29.1122 32.0249 28.6293C31.9159 28.1308 31.8536 27.6012 31.8536 27.0093C31.8536 26.4174 31.9159 25.8723 32.0561 25.3738C32.1963 24.8754 32.3988 24.4548 32.6947 24.081C32.9751 23.7227 33.3489 23.4268 33.8162 23.2399C34.2679 23.0374 34.8131 22.9283 35.4517 22.9283C36.1526 22.9283 36.7445 23.0374 37.1963 23.2555C37.648 23.4735 38.0062 23.7539 38.271 24.1122C38.5358 24.4704 38.7227 24.9065 38.8162 25.3894C38.9252 25.8723 38.972 26.3863 38.972 26.9159V26.9003ZM36.6044 26.9782C36.6044 26.5421 36.5732 26.1682 36.5421 25.8723C36.4953 25.5607 36.4174 25.3271 36.324 25.1402C36.2305 24.9533 36.1059 24.8131 35.9502 24.7196C35.7944 24.6417 35.6075 24.595 35.405 24.595C35.2025 24.595 35.0312 24.6417 34.891 24.7196C34.7508 24.7975 34.6262 24.9377 34.5171 25.1246C34.4237 25.3115 34.3458 25.5452 34.2991 25.8567C34.2523 26.1526 34.2368 26.5109 34.2368 26.947C34.2368 27.4455 34.2679 27.8349 34.3146 28.1464C34.3769 28.4579 34.4548 28.7072 34.5483 28.8785C34.6573 29.0498 34.7819 29.19 34.9221 29.2523C35.0779 29.3146 35.2492 29.3614 35.4361 29.3614C35.6698 29.3614 35.8567 29.3146 35.9969 29.2212C36.1526 29.1277 36.2617 28.9875 36.3551 28.8006C36.4486 28.6137 36.5109 28.3645 36.5421 28.0685C36.5732 27.7726 36.6044 27.4143 36.6044 27.0093V26.9782ZM26.4486 30.7321C26.3707 30.8255 26.3084 30.9034 26.2305 30.9657C26.1526 31.028 26.0592 31.0748 25.9502 31.1215C25.8411 31.1527 25.7009 31.1838 25.5452 31.1994C25.3894 31.215 25.1869 31.2305 24.9688 31.2305C24.7041 31.2305 24.5016 31.215 24.3458 31.1838C24.19 31.1527 24.081 31.1059 24.0187 31.0436C23.9564 30.9813 23.9252 30.9034 23.9408 30.8255C23.9564 30.7477 24.0031 30.6386 24.0966 30.514L35.0467 15.4984C35.1246 15.4206 35.1869 15.3427 35.2648 15.2648C35.3427 15.2025 35.4361 15.1558 35.5452 15.109C35.6542 15.0779 35.7944 15.0467 35.9502 15.0312C36.1059 15.0156 36.3084 15 36.5421 15C36.8069 15 37.0093 15.0156 37.1651 15.0467C37.3209 15.0779 37.4299 15.1246 37.4922 15.1869C37.5545 15.2492 37.5857 15.3271 37.5701 15.4206C37.5545 15.4984 37.5078 15.6075 37.4299 15.7165L26.4797 30.7321H26.4486ZM10 32.3988H16.838V44.2368H10V32.3988Z" fill="#169D00"/>
</svg>
