<svg width="385" height="391" viewBox="0 0 385 391" fill="none" xmlns="http://www.w3.org/2000/svg">
<rect width="385" height="391" fill="white"/>
<path d="M195.526 366.738C289.249 366.738 365.227 290.917 365.227 197.387C365.227 103.857 289.249 28.0357 195.526 28.0357C101.802 28.0357 25.8246 103.857 25.8246 197.387C25.8246 290.917 101.802 366.738 195.526 366.738Z" fill="#FBF5FF"/>
<path d="M181.94 259.196H347.11V37.2173L181.94 37.2173L181.94 259.196Z" fill="white"/>
<path d="M340.282 254.104H175.112C174.886 254.104 174.703 253.922 174.703 253.696V31.7176C174.703 31.492 174.886 31.3095 175.112 31.3095H340.282C340.508 31.3095 340.69 31.492 340.69 31.7176V253.696C340.69 253.922 340.507 254.104 340.282 254.104ZM175.521 253.288H339.872V32.1257H175.521V253.288Z" fill="#9555C5"/>
<path d="M330.017 91.8462H198.212C197.986 91.8462 197.803 91.6637 197.803 91.4381V56.9104C197.803 56.6848 197.986 56.5023 198.212 56.5023H330.017C330.243 56.5023 330.426 56.6848 330.426 56.9104V91.4383C330.426 91.6637 330.243 91.8462 330.017 91.8462ZM198.621 91.03H329.609V57.3183H198.621V91.03Z" fill="#9555C5"/>
<path d="M239.765 80.6831H246.995V82.89H236.998V66.9838H239.765V80.6831Z" fill="#9555C5"/>
<path d="M261.128 75.3518C261.128 76.9107 260.858 78.2779 260.319 79.4539C259.779 80.6303 259.008 81.5334 258.005 82.1634C257.002 82.7934 255.848 83.1082 254.543 83.1082C253.252 83.1082 252.102 82.7934 251.092 82.1634C250.082 81.5334 249.302 80.6359 248.751 79.4702C248.2 78.3053 247.921 76.9616 247.914 75.4393V74.5435C247.914 72.9921 248.189 71.6229 248.74 70.4356C249.291 69.2488 250.067 68.3402 251.07 67.7102C252.072 67.0802 253.223 66.765 254.521 66.765C255.819 66.765 256.97 67.0767 257.972 67.6991C258.975 68.3219 259.75 69.2179 260.297 70.3867C260.843 71.5555 261.121 72.9157 261.128 74.4671L261.128 75.3518ZM258.36 74.5217C258.36 72.7591 258.027 71.408 257.36 70.4687C256.692 69.529 255.746 69.0591 254.521 69.0591C253.325 69.0591 252.39 69.5274 251.716 70.4632C251.041 71.3989 250.696 72.7227 250.682 74.4343V75.3516C250.682 77.0999 251.023 78.4508 251.704 79.4049C252.387 80.359 253.332 80.836 254.543 80.836C255.769 80.836 256.711 80.3701 257.371 79.4377C258.031 78.5056 258.361 77.1434 258.361 75.3518L258.36 74.5217Z" fill="#9555C5"/>
<path d="M272.57 79.1867H266.4L265.11 82.89H262.233L268.249 66.9838H270.732L276.759 82.89H273.871L272.57 79.1867ZM267.177 76.9579H271.793L269.485 70.3593L267.177 76.9579Z" fill="#9555C5"/>
<path d="M291.198 82.89H288.431L281.331 71.6049V82.89H278.564V66.9838H281.331L288.453 78.3127V66.9838H291.198V82.89Z" fill="#9555C5"/>
<path d="M292.514 236.173C290.976 236.173 289.552 235.582 288.619 234.537C288.333 234.216 288.095 233.855 287.908 233.464C287.745 233.56 287.578 233.648 287.406 233.728C284.75 234.968 281.307 234.198 279.394 231.94C279.214 231.729 279.05 231.506 278.901 231.275C278.826 231.339 278.75 231.403 278.673 231.465C277.017 232.804 274.364 233.667 272.174 232.574C270.129 231.553 269.376 229.493 269.163 227.548C267.25 227.352 265.29 226.097 264.998 224.059C264.966 223.836 265.122 223.629 265.345 223.598C265.569 223.565 265.776 223.721 265.808 223.944C266.028 225.479 267.558 226.506 269.103 226.718C269.051 225.362 269.221 224.153 269.336 223.518C270.549 216.81 273.9 210.485 278.771 205.708C280.802 203.716 283.788 202.125 286.074 203.636C288.592 205.299 287.916 209.015 286.573 211.692C283.983 216.851 280.198 221.445 275.627 224.978C274.07 226.181 272.184 227.428 269.995 227.566C270.232 229.422 270.983 231.067 272.54 231.844C274.406 232.775 276.706 232.005 278.158 230.831C278.272 230.739 278.383 230.644 278.492 230.546C277.474 228.426 277.555 225.778 278.817 223.741C279.387 222.818 280.433 222.115 281.359 222.031C281.959 221.976 282.48 222.172 282.863 222.596C283.575 223.381 283.488 224.58 282.607 226.158C281.761 227.673 280.821 229.356 279.506 230.704C279.658 230.953 279.828 231.19 280.018 231.414C281.701 233.4 284.728 234.078 287.06 232.989C287.251 232.9 287.436 232.799 287.613 232.688C287.363 231.818 287.332 230.854 287.543 229.893C287.922 228.166 289.015 226.757 290.466 226.124C290.578 226.076 290.705 226.079 290.814 226.133C290.923 226.188 291.001 226.288 291.028 226.407C291.578 228.809 290.537 231.468 288.592 232.996C288.754 233.363 288.967 233.7 289.23 233.994C290.11 234.98 291.529 235.479 293.036 235.33C294.538 235.18 295.834 234.411 296.501 233.271C296.615 233.076 296.865 233.01 297.06 233.124C297.255 233.238 297.321 233.488 297.207 233.682C296.408 235.047 294.879 235.967 293.116 236.143C292.914 236.163 292.713 236.173 292.514 236.173ZM290.323 227.119C289.347 227.726 288.622 228.793 288.342 230.068C288.184 230.786 288.183 231.502 288.324 232.162C289.743 230.922 290.542 228.974 290.323 227.119ZM281.555 222.838C281.515 222.838 281.475 222.84 281.433 222.844C280.768 222.904 279.943 223.474 279.512 224.169C278.446 225.892 278.333 228.106 279.11 229.933C280.256 228.692 281.116 227.152 281.893 225.76C282.585 224.521 282.707 223.64 282.257 223.142C282.072 222.938 281.841 222.838 281.555 222.838ZM284.033 203.852C282.443 203.852 280.677 204.983 279.345 206.29C274.593 210.95 271.324 217.12 270.141 223.663C269.961 224.658 269.874 225.722 269.925 226.752C271.9 226.635 273.662 225.463 275.126 224.332C279.601 220.874 283.306 216.377 285.841 211.326C287.129 208.76 287.561 205.597 285.623 204.316C285.133 203.992 284.593 203.852 284.033 203.852Z" fill="#CD8BFD"/>
<path d="M282.911 174.886H232.669V177.965H282.911V174.886Z" fill="#F6EAFF"/>
<path d="M302.233 182.578H240.466V185.657H302.233V182.578Z" fill="#F6EAFF"/>
<path d="M292.098 190.27H232.669V193.349H292.098V190.27Z" fill="#F6EAFF"/>
<path d="M308.118 141.017H245.965V144.096H308.118V141.017Z" fill="#F6EAFF"/>
<path d="M290.417 148.708H230.988V151.787H290.417V148.708Z" fill="#F6EAFF"/>
<path d="M300.772 156.4H230.988V159.479H300.772V156.4Z" fill="#F6EAFF"/>
<path d="M300.772 109.198H246.185V112.277H300.772V109.198Z" fill="#F6EAFF"/>
<path d="M290.417 116.89H231.208V119.969H290.417V116.89Z" fill="#F6EAFF"/>
<path d="M308.118 124.582H231.208V127.66H308.118V124.582Z" fill="#F6EAFF"/>
<path d="M223.155 196.965H198.212C197.986 196.965 197.803 196.783 197.803 196.557V171.677C197.803 171.452 197.986 171.269 198.212 171.269H223.155C223.381 171.269 223.564 171.452 223.564 171.677V196.557C223.564 196.783 223.381 196.965 223.155 196.965ZM198.621 196.149H222.746V172.086H198.621V196.149Z" fill="#FCF8FF"/>
<path d="M209.345 192.796L201.536 185.711L203.949 182.743L208.9 186.692L216.669 175.439L219.83 177.61L209.345 192.796Z" fill="#8800EC"/>
<path d="M223.155 163.096H198.212C197.986 163.096 197.803 162.914 197.803 162.688V137.808C197.803 137.582 197.986 137.4 198.212 137.4H223.155C223.381 137.4 223.564 137.582 223.564 137.808V162.688C223.564 162.913 223.381 163.096 223.155 163.096ZM198.621 162.28H222.746V138.216H198.621V162.28Z" fill="#FCF8FF"/>
<path d="M209.345 158.927L201.536 151.841L203.949 148.874L208.9 152.822L216.669 141.569L219.83 143.74L209.345 158.927Z" fill="#8800EC"/>
<path d="M223.155 131.277H198.212C197.986 131.277 197.803 131.095 197.803 130.869V105.989C197.803 105.764 197.986 105.581 198.212 105.581H223.155C223.381 105.581 223.564 105.764 223.564 105.989V130.869C223.564 131.095 223.381 131.277 223.155 131.277ZM198.621 130.461H222.746V106.397H198.621V130.461Z" fill="#FCF8FF"/>
<path d="M209.345 127.108L201.536 120.023L203.949 117.055L208.9 121.004L216.669 109.751L219.83 111.922L209.345 127.108Z" fill="#8800EC"/>
<path d="M139.553 98.3357H164.484V93.6481H139.553V98.3357Z" fill="#E6C5FF"/>
<path d="M143.324 148.883H160.713V95.992H143.324V148.883Z" fill="#E6C5FF"/>
<path d="M109.852 98.3357H134.783V93.6481H109.852V98.3357Z" fill="#E6C5FF"/>
<path d="M113.623 162.041H131.012V95.9919H113.623V162.041Z" fill="#E6C5FF"/>
<path d="M80.2038 98.3357H105.135V93.6481H80.2038V98.3357Z" fill="#E6C5FF"/>
<path d="M80.2038 166.759H105.135V162.071H80.2038V166.759Z" fill="#E6C5FF"/>
<path d="M83.9749 164.672H101.364L101.364 95.9921H83.9749V164.672Z" fill="#E6C5FF"/>
<path d="M109.852 98.3357H134.783V93.6481H109.852V98.3357Z" fill="#E6C5FF"/>
<path d="M109.852 166.759H134.783V162.071H109.852V166.759Z" fill="#E6C5FF"/>
<path d="M113.623 164.672H131.012V95.9921H113.623V164.672Z" fill="#E6C5FF"/>
<path d="M139.553 98.3357H164.484V93.6481H139.553V98.3357Z" fill="#E6C5FF"/>
<path d="M139.553 166.759H164.484V162.071H139.553V166.759Z" fill="#E6C5FF"/>
<path d="M143.324 164.672H160.713V95.9921H143.324V164.672Z" fill="#E6C5FF"/>
<path d="M164.295 169.625H50.5024V178.229H164.295V169.625Z" fill="#E6C5FF"/>
<path d="M47.3684 192.375L167.156 192.375V180.941H47.3684V192.375Z" fill="#E6C5FF"/>
<path d="M43.1638 207.004L171.447 207.004V195.151L43.1638 195.151V207.004Z" fill="#E6C5FF"/>
<path d="M50.5025 98.3357H75.4339V93.6481H50.5025V98.3357Z" fill="#E6C5FF"/>
<path d="M50.5025 166.759H75.4339V162.071H50.5025V166.759Z" fill="#E6C5FF"/>
<path d="M54.2735 164.672H71.6628L71.6628 95.9921H54.2735L54.2735 164.672Z" fill="#E6C5FF"/>
<path d="M107.977 36.5975L165.703 75.5165H50.2498L107.977 36.5975Z" fill="#E6C5FF"/>
<path d="M165.703 80.3174H50.2498V90.0474H165.703V80.3174Z" fill="#E6C5FF"/>
<path d="M266.552 345.199L360.006 305.055L347.619 276.337L340.622 271.505L341.548 262.263L336.141 249.727L242.687 289.871L248.095 302.407L254.675 307.033L254.165 316.481L266.552 345.199Z" fill="white"/>
<path d="M264.839 348.331L264.678 347.956L240.652 292.253L241.027 292.092L334.856 251.787L359.045 307.864L358.669 308.026L264.839 348.331ZM241.726 292.681L265.267 347.259L357.97 307.437L334.428 252.859L241.726 292.681Z" fill="#363E44"/>
<path d="M254.165 316.498L347.616 276.351L341.545 262.277L248.094 302.424L254.165 316.498Z" fill="#363E44"/>
<path d="M252.999 363.733C266.931 363.733 278.225 360.165 278.225 355.764C278.225 351.363 266.931 347.795 252.999 347.795C239.067 347.795 227.773 351.363 227.773 355.764C227.773 360.165 239.067 363.733 252.999 363.733Z" fill="#E0AA63"/>
<path d="M278.225 347.825H227.773V356.036H278.225V347.825Z" fill="#E0AA63"/>
<path d="M252.999 355.95C266.931 355.95 278.225 352.382 278.225 347.981C278.225 343.58 266.931 340.012 252.999 340.012C239.067 340.012 227.773 343.58 227.773 347.981C227.773 352.382 239.067 355.95 252.999 355.95Z" fill="#EFBC73"/>
<path d="M255.971 356.358C241.596 356.358 230.336 352.678 230.336 347.981C230.336 343.283 241.596 339.603 255.971 339.603C270.346 339.603 281.606 343.283 281.606 347.981C281.606 352.678 270.346 356.358 255.971 356.358ZM255.971 340.419C242.519 340.419 231.154 343.882 231.154 347.981C231.154 352.08 242.519 355.542 255.971 355.542C269.423 355.542 280.788 352.08 280.788 347.981C280.788 343.882 269.423 340.419 255.971 340.419Z" fill="white"/>
<path d="M257.142 352.156C271.074 352.156 282.368 348.588 282.368 344.186C282.368 339.785 271.074 336.217 257.142 336.217C243.21 336.217 231.916 339.785 231.916 344.186C231.916 348.588 243.21 352.156 257.142 352.156Z" fill="#E0AA63"/>
<path d="M282.369 336.247H231.916V344.458H282.369V336.247Z" fill="#E0AA63"/>
<path d="M257.142 344.372C271.074 344.372 282.368 340.804 282.368 336.403C282.368 332.002 271.074 328.434 257.142 328.434C243.21 328.434 231.916 332.002 231.916 336.403C231.916 340.804 243.21 344.372 257.142 344.372Z" fill="#EFBC73"/>
<path d="M255.382 343.823C241.007 343.823 229.747 340.143 229.747 335.445C229.747 330.748 241.007 327.068 255.382 327.068C269.757 327.068 281.017 330.748 281.017 335.445C281.017 340.143 269.757 343.823 255.382 343.823ZM255.382 327.884C241.929 327.884 230.565 331.347 230.565 335.445C230.565 339.544 241.929 343.007 255.382 343.007C268.834 343.007 280.199 339.544 280.199 335.445C280.199 331.347 268.834 327.884 255.382 327.884Z" fill="white"/>
<path d="M252.999 337.789C266.931 337.789 278.225 334.221 278.225 329.82C278.225 325.419 266.931 321.851 252.999 321.851C239.067 321.851 227.773 325.419 227.773 329.82C227.773 334.221 239.067 337.789 252.999 337.789Z" fill="#E0AA63"/>
<path d="M278.225 321.881H227.773V330.092H278.225V321.881Z" fill="#E0AA63"/>
<path d="M252.999 330.006C266.931 330.006 278.225 326.438 278.225 322.037C278.225 317.635 266.931 314.068 252.999 314.068C239.067 314.068 227.773 317.635 227.773 322.037C227.773 326.438 239.067 330.006 252.999 330.006Z" fill="#EFBC73"/>
<path d="M255.971 330.414C241.596 330.414 230.336 326.734 230.336 322.037C230.336 317.339 241.596 313.66 255.971 313.66C270.346 313.66 281.606 317.339 281.606 322.037C281.606 326.734 270.346 330.414 255.971 330.414ZM255.971 314.476C242.519 314.476 231.154 317.938 231.154 322.037C231.154 326.135 242.519 329.598 255.971 329.598C269.423 329.598 280.788 326.135 280.788 322.037C280.788 317.938 269.423 314.476 255.971 314.476Z" fill="white"/>
<path d="M261.172 326.253C275.104 326.253 286.398 322.685 286.398 318.284C286.398 313.883 275.104 310.315 261.172 310.315C247.24 310.315 235.945 313.883 235.945 318.284C235.945 322.685 247.24 326.253 261.172 326.253Z" fill="#E0AA63"/>
<path d="M286.398 310.345H235.945V318.556H286.398V310.345Z" fill="#E0AA63"/>
<path d="M261.172 318.47C275.104 318.47 286.398 314.902 286.398 310.501C286.398 306.099 275.104 302.531 261.172 302.531C247.24 302.531 235.945 306.099 235.945 310.501C235.945 314.902 247.24 318.47 261.172 318.47Z" fill="#EFBC73"/>
<path d="M264.144 318.878C249.769 318.878 238.508 315.198 238.508 310.501C238.508 305.803 249.769 302.123 264.144 302.123C278.519 302.123 289.779 305.803 289.779 310.501C289.779 315.198 278.519 318.878 264.144 318.878ZM264.144 302.939C250.691 302.939 239.326 306.402 239.326 310.501C239.326 314.599 250.691 318.062 264.144 318.062C277.596 318.062 288.961 314.599 288.961 310.501C288.961 306.402 277.596 302.939 264.144 302.939Z" fill="white"/>
<path d="M310.567 364.016C324.499 364.016 335.793 360.449 335.793 356.047C335.793 351.646 324.499 348.078 310.567 348.078C296.635 348.078 285.34 351.646 285.34 356.047C285.34 360.449 296.635 364.016 310.567 364.016Z" fill="#E0AA63"/>
<path d="M335.793 348.108H285.34V356.319H335.793V348.108Z" fill="#E0AA63"/>
<path d="M310.567 356.233C324.499 356.233 335.793 352.665 335.793 348.264C335.793 343.863 324.499 340.295 310.567 340.295C296.635 340.295 285.34 343.863 285.34 348.264C285.34 352.665 296.635 356.233 310.567 356.233Z" fill="#EFBC73"/>
<path d="M313.538 356.641C299.164 356.641 287.904 352.961 287.904 348.264C287.904 343.567 299.164 339.887 313.538 339.887C327.913 339.887 339.174 343.567 339.174 348.264C339.174 352.961 327.913 356.641 313.538 356.641ZM313.538 340.703C300.086 340.703 288.722 344.166 288.722 348.264C288.722 352.363 300.086 355.825 313.538 355.825C326.991 355.825 338.356 352.363 338.356 348.264C338.356 344.166 326.991 340.703 313.538 340.703Z" fill="white"/>
<path d="M307.595 352.065C321.527 352.065 332.821 348.507 332.821 344.118C332.821 339.728 321.527 336.17 307.595 336.17C293.663 336.17 282.369 339.728 282.369 344.118C282.369 348.507 293.663 352.065 307.595 352.065Z" fill="#E0AA63"/>
<path d="M332.821 336.2H282.369V344.389H332.821V336.2Z" fill="#E0AA63"/>
<path d="M307.595 344.303C321.527 344.303 332.821 340.745 332.821 336.356C332.821 331.967 321.527 328.408 307.595 328.408C293.663 328.408 282.369 331.967 282.369 336.356C282.369 340.745 293.663 344.303 307.595 344.303Z" fill="#EFBC73"/>
<path d="M310.567 344.712C296.192 344.712 284.931 341.041 284.931 336.356C284.931 331.671 296.192 328 310.567 328C324.941 328 336.202 331.671 336.202 336.356C336.202 341.041 324.941 344.712 310.567 344.712ZM310.567 328.816C297.114 328.816 285.749 332.269 285.749 336.356C285.749 340.442 297.114 343.895 310.567 343.895C324.019 343.895 335.384 340.442 335.384 336.356C335.384 332.269 324.019 328.816 310.567 328.816Z" fill="white"/>
<path d="M315.037 337.763C318.171 334.664 312.761 324.148 302.956 314.274C293.15 304.399 282.662 298.907 279.529 302.005C276.396 305.103 281.805 315.62 291.61 325.494C301.416 335.368 311.904 340.861 315.037 337.763Z" fill="#E0AA63"/>
<path d="M285.181 296.404L279.336 302.184L314.845 337.942L320.69 332.162L285.181 296.404Z" fill="#E0AA63"/>
<path d="M320.579 332.285C323.712 329.187 318.303 318.67 308.498 308.796C298.692 298.922 288.204 293.429 285.071 296.527C281.937 299.626 287.347 310.142 297.152 320.017C306.958 329.891 317.446 335.384 320.579 332.285Z" fill="#EFBC73"/>
<path d="M320.166 335.673C315.434 335.673 307.055 330.59 298.951 322.428C294.18 317.623 290.286 312.513 287.986 308.041C285.616 303.433 285.222 299.995 286.874 298.361C290.22 295.057 300.764 300.447 310.881 310.636C315.652 315.441 319.546 320.55 321.846 325.023C324.215 329.631 324.61 333.068 322.957 334.702C322.291 335.36 321.341 335.673 320.166 335.673ZM289.68 298.184C288.729 298.184 287.97 298.428 287.45 298.942C286.092 300.284 286.552 303.465 288.713 307.668C290.976 312.069 294.818 317.106 299.531 321.853C308.999 331.388 319.464 337.005 322.381 334.122C323.74 332.779 323.279 329.599 321.118 325.396C318.855 320.995 315.014 315.958 310.3 311.211C302.52 303.375 294.066 298.184 289.68 298.184Z" fill="white"/>
<path d="M113.188 72.7819C113.188 70.0023 114.076 67.71 115.853 65.9064C117.628 64.1028 119.909 63.2005 122.696 63.2005C125.525 63.2005 127.817 64.1076 129.572 65.9223C131.327 67.7363 132.205 70.0873 132.205 72.9727V75.2331C132.205 78.0342 131.316 80.3213 129.54 82.0931C127.764 83.8649 125.504 84.7512 122.76 84.7512C119.995 84.7512 117.708 83.8649 115.901 82.0931C114.092 80.3213 113.188 77.9601 113.188 75.0103L113.188 72.7819ZM117.591 75.22C117.591 76.8794 118.059 78.2459 118.995 79.3203C119.931 80.3944 121.185 80.9311 122.76 80.9311C124.27 80.9311 125.488 80.4103 126.413 79.3677C127.338 78.3257 127.801 76.9009 127.801 75.0921V72.7632C127.801 71.1041 127.343 69.7324 126.429 68.6479C125.514 67.5631 124.27 67.0202 122.696 67.0202C121.122 67.0202 119.877 67.5631 118.963 68.6479C118.048 69.7326 117.591 71.1474 117.591 72.8907L117.591 75.22ZM124.1 106.715L120.75 104.615L143.435 68.3891L146.785 70.49L124.1 106.715ZM135.81 98.8529C135.81 96.073 136.698 93.7863 138.474 91.993C140.249 90.1997 142.531 89.303 145.318 89.303C148.104 89.303 150.391 90.194 152.178 91.9771C153.964 93.7596 154.858 96.1264 154.858 99.0754V101.336C154.858 104.116 153.969 106.402 152.194 108.196C150.417 109.989 148.146 110.886 145.382 110.886C142.616 110.886 140.329 109.999 138.522 108.228C136.714 106.456 135.81 104.095 135.81 101.145L135.81 98.8529ZM140.213 101.323C140.213 103.003 140.68 104.38 141.616 105.455C142.552 106.529 143.807 107.065 145.381 107.065C146.913 107.065 148.136 106.539 149.051 105.486C149.965 104.434 150.423 103.003 150.423 101.195V98.8339C150.423 97.1537 149.96 95.782 149.035 94.7183C148.109 93.655 146.87 93.1231 145.317 93.1231C143.807 93.1231 142.579 93.6495 141.632 94.702C140.686 95.755 140.212 97.1751 140.212 98.9617V101.323H140.213Z" fill="#8800EC"/>
<path d="M121.841 332.315L124.469 365.963H176.539C174.478 345.519 171.884 298.909 165.193 267.919C144.465 264.126 116.151 260.334 95.4224 256.542C86.9105 269.685 65.8673 334.791 57.5722 365.963H113.224L121.841 332.315Z" fill="#8B865C"/>
<path d="M131.232 298.292L135.927 325.454L173.243 311.609L170.772 298.045L131.232 298.292Z" fill="white"/>
<path d="M131.726 299.402L127.031 325.05L74.5442 305.149L77.0153 291.585L131.726 299.402Z" fill="white"/>
<path d="M214.705 253.454C227.192 252.249 255.441 249.493 258.314 249.188C263.686 248.618 289.788 246.123 290.2 249.905C290.462 252.322 277.44 253.813 275.193 254.251C277.944 254.418 292.096 253.064 292.556 255.235C293.055 257.591 275.183 260.905 275.052 260.969C277.013 260.852 291.376 259.696 291.473 261.794C291.586 264.23 276.774 266.74 274.341 267.015C274.56 267.284 284.993 265.839 285.423 268.194C285.807 270.291 273.975 272.424 272.387 272.955C268.198 274.226 260.307 275.477 251.418 277.349C230.543 281.747 220.626 282.878 210.159 283.227C202.618 283.479 195.933 275.24 191.929 267.152C198.228 260.901 203.571 258.686 214.705 253.454Z" fill="#E2A18D"/>
<path d="M210.82 254.989C210.612 254.989 210.434 254.831 210.413 254.62C210.391 254.396 210.556 254.197 210.781 254.175C211.8 254.076 214.258 253.688 216.862 253.278C219.542 252.856 222.313 252.419 223.515 252.302C223.736 252.283 223.94 252.445 223.961 252.669C223.983 252.893 223.819 253.093 223.594 253.115C222.416 253.229 219.657 253.664 216.989 254.085C214.373 254.497 211.903 254.886 210.86 254.987C210.846 254.988 210.833 254.989 210.82 254.989Z" fill="#363E44"/>
<path d="M263.375 259.604C263.159 259.604 262.978 259.434 262.967 259.216C262.956 258.991 263.13 258.799 263.355 258.788C275.423 258.189 275.907 256.702 275.922 256.535C275.936 256.384 275.768 254.989 265.778 252.455C265.559 252.4 265.426 252.178 265.482 251.96C265.537 251.741 265.762 251.608 265.979 251.665C276.935 254.443 276.791 256.016 276.737 256.609C276.677 257.25 276.521 258.952 263.396 259.604C263.389 259.604 263.382 259.604 263.375 259.604Z" fill="#363E44"/>
<path d="M129.872 201.434C129.872 201.434 148.032 194.07 151.801 195.893C176.242 207.713 207.143 242.369 213.03 247.983C212.091 249.148 249.604 246.75 249.604 246.75L250.84 281.276C250.84 281.276 218.552 288.901 197.214 284.975C181.671 282.115 174.725 266.725 173.49 263.026C174.078 281.885 172.995 294.1 172.254 304.457C150.754 311.116 101.824 306.677 76.6169 297.059C77.1142 288.964 79.2837 258.484 79.6545 247.14C78.903 247.428 71.6745 250.449 71.6745 250.449L96.3868 273.384L70.4387 299.525C70.4387 299.525 26.2691 260.05 27.192 241.817C28.1778 222.339 72.4265 197.874 112.336 192.378C122.451 190.985 129.872 201.434 129.872 201.434Z" fill="#363E44"/>
<path d="M151.795 195.895C148.029 194.074 144.414 192.79 141.07 192.244C132.286 190.81 122.447 190.985 112.33 192.379C112.29 193.054 112.288 193.736 112.339 194.425C113.048 204.001 122.524 211.108 133.505 210.299C142.763 209.617 150.133 203.527 151.795 195.895Z" fill="white"/>
<path d="M210.011 228.276L183.946 236.673L190.417 247.374L210.011 228.276Z" fill="white"/>
<path d="M201.868 236.258L210.082 228.253L199.155 231.772L201.868 236.258Z" fill="#D87355"/>
<path d="M57.2104 320.287C55.4236 317.332 56.3756 313.491 59.3369 311.708L183.946 236.673L190.417 247.374L65.8076 322.409C62.8463 324.192 58.9971 323.242 57.2104 320.287Z" fill="#EFBC73"/>
<path d="M77.1394 306.613C77.0008 306.613 76.8656 306.543 76.789 306.415C76.6722 306.223 76.7343 305.971 76.9278 305.855L186.092 240.121C186.285 240.004 186.536 240.067 186.653 240.26C186.77 240.453 186.707 240.704 186.514 240.82L77.3503 306.554C77.2842 306.594 77.2113 306.613 77.1394 306.613Z" fill="#363E44"/>
<path d="M79.9203 311.211C79.7817 311.211 79.6465 311.141 79.5695 311.014C79.4529 310.821 79.5152 310.57 79.7085 310.454L188.872 244.72C189.065 244.603 189.317 244.665 189.433 244.859C189.55 245.051 189.488 245.303 189.295 245.419L80.1309 311.153C80.0649 311.193 79.992 311.211 79.9203 311.211Z" fill="#363E44"/>
<path d="M81.2979 313.49C81.1594 313.49 81.0241 313.42 80.9475 313.292L74.4766 302.591C74.3598 302.398 74.4219 302.147 74.6154 302.03C74.8085 301.914 75.0601 301.976 75.1766 302.169L81.6475 312.871C81.7643 313.063 81.7022 313.315 81.5088 313.431C81.4426 313.471 81.3697 313.49 81.2979 313.49Z" fill="#363E44"/>
<path d="M74.8033 317.401C74.6647 317.401 74.5295 317.331 74.4529 317.203L67.982 306.502C67.8652 306.309 67.9273 306.058 68.1207 305.941C68.3136 305.825 68.5655 305.887 68.682 306.08L75.1527 316.782C75.2695 316.975 75.2074 317.226 75.0139 317.342C74.9481 317.382 74.8752 317.401 74.8033 317.401Z" fill="#363E44"/>
<path d="M93.465 271.599C93.465 271.599 105 280.018 106.049 280.839C110.908 284.637 121.487 292.443 119.618 296.236C118.997 297.497 117.534 298.293 115.852 298.39C116.367 300.119 115.819 301.967 114.478 303.058C112.715 304.491 110.542 303.835 110.383 303.784C110.954 305.059 110.858 306.507 110.084 307.517C109.016 308.911 106.786 309.3 104.983 308.174C104.947 308.568 104.771 309.968 103.616 310.986C102.336 312.113 100.372 312.316 98.6469 311.49C94.3276 308.119 73.4047 295.086 73.4047 295.086L93.465 271.599Z" fill="#E2A18D"/>
<path d="M111.562 292.815C111.465 292.815 111.367 292.78 111.29 292.711C111.121 292.56 111.107 292.302 111.258 292.134L113.069 290.115C113.22 289.947 113.478 289.933 113.647 290.083C113.815 290.234 113.829 290.492 113.679 290.66L111.867 292.679C111.786 292.769 111.674 292.815 111.562 292.815Z" fill="#363E44"/>
<path d="M106.973 297.945C106.876 297.945 106.779 297.911 106.701 297.841C106.533 297.691 106.518 297.433 106.669 297.265L108.48 295.246C108.631 295.078 108.889 295.063 109.058 295.214C109.226 295.364 109.24 295.622 109.09 295.79L107.278 297.81C107.197 297.9 107.086 297.945 106.973 297.945Z" fill="#363E44"/>
<path d="M102.359 303.221C102.262 303.221 102.164 303.187 102.086 303.117C101.918 302.967 101.904 302.708 102.054 302.541L103.865 300.521C104.016 300.353 104.274 300.339 104.443 300.49C104.611 300.64 104.625 300.898 104.475 301.066L102.663 303.085C102.583 303.175 102.471 303.221 102.359 303.221Z" fill="#363E44"/>
<path d="M98.0746 307.92C97.9776 307.92 97.88 307.886 97.8021 307.816C97.6341 307.665 97.6196 307.408 97.7702 307.24L99.5817 305.22C99.7326 305.052 99.9906 305.038 100.159 305.188C100.327 305.338 100.342 305.597 100.191 305.764L98.3795 307.784C98.2988 307.874 98.187 307.92 98.0746 307.92Z" fill="#363E44"/>
<path d="M136.751 207.373L130.49 203.099L124.559 214.772L116.157 193.892L136.751 207.373Z" fill="white"/>
<path d="M124.559 215.18C124.554 215.18 124.548 215.18 124.542 215.18C124.381 215.172 124.24 215.073 124.18 214.924L115.778 194.044C115.694 193.835 115.795 193.597 116.005 193.513C116.214 193.43 116.452 193.531 116.537 193.74L124.603 213.784L130.125 202.914C130.179 202.809 130.275 202.732 130.389 202.703C130.502 202.675 130.624 202.695 130.721 202.762L136.982 207.037C137.168 207.164 137.216 207.418 137.088 207.604C136.961 207.79 136.706 207.838 136.52 207.71L130.644 203.698L124.924 214.956C124.854 215.094 124.713 215.18 124.559 215.18Z" fill="#363E44"/>
<path d="M142.476 202.975L150.507 211.484L149.025 195.947L142.476 202.975Z" fill="white"/>
<path d="M150.508 211.892C150.397 211.892 150.289 211.847 150.21 211.763L142.178 203.255C142.024 203.091 142.031 202.833 142.196 202.678C142.36 202.523 142.619 202.531 142.774 202.696L149.988 210.338L148.618 195.986C148.596 195.761 148.761 195.562 148.986 195.541C149.208 195.51 149.411 195.684 149.432 195.908L150.915 211.445C150.932 211.618 150.836 211.783 150.677 211.856C150.622 211.88 150.565 211.892 150.508 211.892Z" fill="#363E44"/>
<path d="M120.692 192.066L140.34 207.206V156.283H120.692V192.066Z" fill="#E2A18D"/>
<path d="M147.42 179.679C144.439 183.812 130.723 180.029 130.723 180.029L119.812 168.917C117.49 162.138 121.115 154.765 127.908 152.448C134.701 150.131 142.09 153.749 144.412 160.528C144.412 160.528 150.457 175.469 147.42 179.679Z" fill="#E2A18D"/>
<path d="M144.103 164.237C144.103 164.237 148.789 166.668 148.931 167.683C149.102 168.894 145.496 170.898 145.496 170.898C145.496 170.898 144.198 164.215 144.103 164.237Z" fill="#E2A18D"/>
<path d="M140.289 182.205C140.283 182.205 140.277 182.205 140.271 182.205C138.528 182.128 134.442 181.575 132.891 181.305C132.669 181.266 132.52 181.055 132.559 180.833C132.598 180.611 132.811 180.465 133.032 180.501C134.525 180.761 138.624 181.315 140.307 181.39C140.533 181.4 140.707 181.59 140.697 181.815C140.688 182.035 140.507 182.205 140.289 182.205Z" fill="#363E44"/>
<path d="M131.31 167.058C131.31 167.058 133.152 165.077 135.872 164.149C136.451 163.952 136.942 168.946 136.303 168.872C133.493 168.545 131.31 167.058 131.31 167.058Z" fill="white"/>
<mask id="mask0_1_3492" style="mask-type:luminance" maskUnits="userSpaceOnUse" x="132" y="163" width="13" height="8">
<path d="M132.105 169.916C132.105 169.916 133.722 166.283 137.088 164.697C140.453 163.111 144.293 164.174 144.293 164.174C144.293 164.174 142.676 167.807 139.31 169.393C135.945 170.978 132.105 169.916 132.105 169.916Z" fill="white"/>
</mask>
<g mask="url(#mask0_1_3492)">
<path d="M141.904 170.734C144.447 169.867 145.804 167.105 144.933 164.564C144.062 162.024 141.294 160.667 138.751 161.534C136.207 162.4 134.851 165.163 135.722 167.703C136.592 170.244 139.36 171.6 141.904 170.734Z" fill="#363E44"/>
</g>
<path d="M142.012 174.767C141.818 174.767 141.623 174.743 141.43 174.695C140.549 174.474 139.855 173.755 139.664 172.864C139.616 172.643 139.757 172.426 139.978 172.379C140.199 172.331 140.416 172.472 140.463 172.692C140.59 173.282 141.048 173.758 141.629 173.904C142.232 174.055 142.875 173.836 143.265 173.345C143.406 173.168 143.663 173.139 143.839 173.279C144.016 173.419 144.046 173.675 143.906 173.852C143.441 174.437 142.737 174.767 142.012 174.767Z" fill="#363E44"/>
<path d="M125.263 173.953C125.167 173.953 125.07 173.919 124.992 173.85C123.921 172.901 123.267 171.742 123.241 170.747C123.229 170.254 123.372 169.846 123.656 169.567C124.371 168.864 125.881 169.114 126.958 169.541C127.168 169.625 127.271 169.862 127.187 170.071C127.103 170.281 126.866 170.382 126.656 170.3C125.462 169.826 124.515 169.868 124.23 170.149C124.113 170.263 124.052 170.468 124.059 170.726C124.074 171.323 124.47 172.296 125.535 173.24C125.704 173.39 125.719 173.647 125.569 173.816C125.488 173.906 125.376 173.953 125.263 173.953Z" fill="#363E44"/>
<path d="M121.161 178.19C118.318 177.979 115.586 170.788 115.354 169.559C114.551 165.305 113.957 161.136 117.269 155.995C121.728 149.075 130.737 149.46 132.714 149.706C138.076 150.375 142.599 154.022 141.982 155.748C141.449 157.237 135.795 157.323 134.115 157.474C130.048 157.84 128.12 157.332 127.36 158.543C126.664 159.652 128.506 161.027 129.378 164.441C130.024 166.969 129.625 169.065 129.419 170.38C128.575 168.141 126.638 166.744 124.744 166.722C122.767 166.7 121.72 168.221 121.264 169.558C120.234 172.58 122.211 175.724 124.641 177.121C124.003 177.759 122.113 178.261 121.161 178.19Z" fill="#84524D"/>
<path d="M117.393 155.748C117.393 158.983 114.765 161.606 111.523 161.606C108.282 161.606 105.654 158.983 105.654 155.748C105.654 152.514 108.282 149.892 111.523 149.892C114.765 149.892 117.393 152.514 117.393 155.748Z" fill="#84524D"/>
<path d="M110.967 164.418C107.506 164.418 104.689 161.608 104.689 158.153C104.689 154.698 107.506 151.888 110.967 151.888C114.429 151.888 117.246 154.698 117.246 158.153C117.246 161.608 114.429 164.418 110.967 164.418ZM110.967 152.704C107.957 152.704 105.507 155.148 105.507 158.153C105.507 161.158 107.957 163.602 110.967 163.602C113.978 163.602 116.428 161.158 116.428 158.153C116.428 155.148 113.978 152.704 110.967 152.704Z" fill="#84524D"/>
<path d="M135.071 168.028C134.938 168.028 134.808 167.964 134.73 167.846C134.605 167.658 134.657 167.405 134.845 167.28C138.016 165.182 138.516 163.891 138.376 163.177C138.268 162.62 137.748 162.249 137.198 161.856C136.589 161.421 135.898 160.927 135.817 160.097C135.668 158.565 138.261 156.956 140.463 155.876C140.665 155.776 140.91 155.859 141.01 156.062C141.109 156.264 141.026 156.509 140.823 156.608C137.636 158.172 136.573 159.423 136.631 160.018C136.676 160.48 137.139 160.81 137.674 161.193C138.3 161.639 139.008 162.145 139.179 163.021C139.455 164.434 138.184 166.05 135.297 167.96C135.227 168.007 135.149 168.028 135.071 168.028Z" fill="#84524D"/>
</svg>
