<svg width="18" height="23" viewBox="0 0 18 23" fill="none" xmlns="http://www.w3.org/2000/svg">
<path d="M8.76 0.607999C9.912 0.607999 11.024 0.831999 12.096 1.28C13.168 1.712 14.112 2.344 14.928 3.176C15.76 3.992 16.392 4.936 16.824 6.008C17.272 7.08 17.496 8.192 17.496 9.344C17.496 10.016 17.432 10.624 17.304 11.168C17.192 11.712 17 12.24 16.728 12.752C16.504 13.216 16.192 13.72 15.792 14.264C15.52 14.632 15.088 15.176 14.496 15.896L9.336 22.448C9.192 22.624 8.992 22.712 8.736 22.712C8.496 22.712 8.304 22.624 8.16 22.448L2.952 15.872C2.952 15.872 2.944 15.872 2.928 15.872C2.88 15.792 2.792 15.672 2.664 15.512L2.64 15.464C2.016 14.632 1.576 14.008 1.32 13.592C0.888 12.92 0.568 12.272 0.36 11.648C0.12 10.912 0 10.144 0 9.344C0 8.192 0.216 7.08 0.648 6.008C1.096 4.936 1.728 3.992 2.544 3.176C3.376 2.344 4.328 1.712 5.4 1.28C6.472 0.831999 7.592 0.607999 8.76 0.607999ZM3.624 4.232C2.936 4.904 2.408 5.688 2.04 6.584C1.688 7.464 1.512 8.384 1.512 9.344C1.512 10.016 1.608 10.64 1.8 11.216C1.976 11.728 2.256 12.28 2.64 12.872C2.896 13.272 3.336 13.888 3.96 14.72L4.128 14.96L8.76 20.768L13.344 14.96C13.936 14.224 14.344 13.696 14.568 13.376C14.92 12.896 15.192 12.464 15.384 12.08C15.592 11.664 15.744 11.24 15.84 10.808C15.952 10.376 16.008 9.888 16.008 9.344C16.008 8.384 15.824 7.464 15.456 6.584C15.088 5.688 14.56 4.904 13.872 4.232C13.2 3.544 12.416 3.016 11.52 2.648C10.64 2.28 9.72 2.096 8.76 2.096C7.8 2.096 6.872 2.28 5.976 2.648C5.096 3.016 4.312 3.544 3.624 4.232ZM6.144 9.344C6.144 9.824 6.256 10.264 6.48 10.664C6.72 11.064 7.04 11.384 7.44 11.624C7.84 11.848 8.28 11.96 8.76 11.96C9.24 11.96 9.68 11.848 10.08 11.624C10.48 11.384 10.8 11.064 11.04 10.664C11.28 10.264 11.4 9.824 11.4 9.344C11.4 8.864 11.28 8.424 11.04 8.024C10.8 7.624 10.48 7.312 10.08 7.088C9.68 6.848 9.24 6.728 8.76 6.728C8.28 6.728 7.84 6.848 7.44 7.088C7.04 7.312 6.72 7.624 6.48 8.024C6.256 8.424 6.144 8.864 6.144 9.344ZM8.76 5.24C9.512 5.24 10.2 5.424 10.824 5.792C11.464 6.16 11.968 6.656 12.336 7.28C12.704 7.904 12.888 8.592 12.888 9.344C12.888 10.096 12.704 10.792 12.336 11.432C11.968 12.056 11.464 12.552 10.824 12.92C10.2 13.288 9.512 13.472 8.76 13.472C8.024 13.472 7.336 13.288 6.696 12.92C6.072 12.552 5.576 12.056 5.208 11.432C4.84 10.792 4.656 10.096 4.656 9.344C4.656 8.592 4.84 7.904 5.208 7.28C5.576 6.656 6.072 6.16 6.696 5.792C7.336 5.424 8.024 5.24 8.76 5.24Z" fill="#212121"/>
</svg>
