<svg width="26" height="38" viewBox="0 0 26 38" fill="none" xmlns="http://www.w3.org/2000/svg">
<path d="M25.2599 21.0199V29.1554C25.2599 33.6647 21.5913 37.3333 17.082 37.3333H12.6701C9.67029 37.3333 7.0887 35.843 5.58688 33.2446L0.569222 24.5526C0.0826199 23.7096 0.373283 22.6268 1.21662 22.1387C2.11917 21.6177 3.15349 21.4626 4.12975 21.7021C5.12587 21.9465 5.96272 22.5798 6.48522 23.4854L7.72999 25.6411V13.4791C7.72999 12.035 8.90487 10.8601 10.349 10.8601C11.7932 10.8601 12.9703 12.035 12.9703 13.4791V18.1492C13.4103 17.8139 13.9596 17.6145 14.5543 17.6145C15.4148 17.6145 16.1795 18.0308 16.6577 18.6725C17.1355 18.0308 17.8998 17.6145 18.7595 17.6145C19.8343 17.6145 20.7598 18.2642 21.1639 19.1908C21.5989 18.8004 22.1738 18.5629 22.8028 18.5629C24.1576 18.5629 25.2599 19.6652 25.2599 21.0199ZM4.36235 15.0803C4.59954 15.0803 4.83864 15.0042 5.04069 14.8476C5.52462 14.4726 5.61285 13.7759 5.23778 13.292C4.35662 12.1549 3.89065 10.7898 3.89065 9.34377C3.89065 5.78172 6.78773 2.88388 10.3482 2.88388C13.9088 2.88388 16.8081 5.78172 16.8081 9.34377C16.8081 10.7894 16.3425 12.1549 15.461 13.292C15.0859 13.7759 15.1742 14.4726 15.6581 14.8476C16.142 15.2227 16.8387 15.1345 17.2138 14.6506C18.399 13.1212 19.0257 11.2864 19.0257 9.34415C19.0257 4.55948 15.1329 0.666666 10.3482 0.666666C5.56358 0.666666 1.67267 4.55948 1.67267 9.34415C1.67267 11.2864 2.29907 13.1212 3.48464 14.6509C3.70311 14.9328 4.03082 15.0806 4.36197 15.0806L4.36235 15.0803Z" fill="#888888"/>
</svg>
