<svg width="20" height="23" viewBox="0 0 20 23" fill="none" xmlns="http://www.w3.org/2000/svg">
<path d="M10 11.312C9.04 11.312 8.144 11.072 7.312 10.592C6.496 10.112 5.848 9.464 5.368 8.648C4.888 7.816 4.648 6.92 4.648 5.96C4.648 5 4.888 4.112 5.368 3.296C5.848 2.464 6.496 1.808 7.312 1.328C8.144 0.847999 9.04 0.607999 10 0.607999C10.96 0.607999 11.848 0.847999 12.664 1.328C13.496 1.808 14.152 2.464 14.632 3.296C15.112 4.112 15.352 5 15.352 5.96C15.352 6.92 15.112 7.816 14.632 8.648C14.152 9.464 13.496 10.112 12.664 10.592C11.848 11.072 10.96 11.312 10 11.312ZM10 2.096C9.296 2.096 8.648 2.272 8.056 2.624C7.464 2.96 6.992 3.424 6.64 4.016C6.304 4.608 6.136 5.256 6.136 5.96C6.136 6.664 6.304 7.312 6.64 7.904C6.992 8.496 7.464 8.968 8.056 9.32C8.648 9.656 9.296 9.824 10 9.824C10.704 9.824 11.352 9.656 11.944 9.32C12.536 8.968 13 8.496 13.336 7.904C13.688 7.312 13.864 6.664 13.864 5.96C13.864 5.256 13.688 4.608 13.336 4.016C13 3.424 12.536 2.96 11.944 2.624C11.352 2.272 10.704 2.096 10 2.096ZM17.128 12.176C17.528 12.576 17.888 13.232 18.208 14.144C18.48 14.896 18.688 15.736 18.832 16.664C18.976 17.496 19.04 18.16 19.024 18.656C18.992 19.424 18.88 20.032 18.688 20.48C18.432 21.104 17.976 21.592 17.32 21.944C16.568 22.344 15.512 22.56 14.152 22.592H5.872C4.512 22.56 3.448 22.344 2.68 21.944C2.024 21.608 1.568 21.128 1.312 20.504C1.12 20.056 1.008 19.456 0.976 18.704C0.96 18.192 1.024 17.52 1.168 16.688C1.312 15.744 1.52 14.896 1.792 14.144C2.112 13.232 2.472 12.576 2.872 12.176C3.432 11.616 4.08 11.328 4.816 11.312C5.568 11.296 6.344 11.552 7.144 12.08C7.608 12.368 8.088 12.6 8.584 12.776C8.936 12.904 9.28 12.992 9.616 13.04L10 13.088L10.384 13.04C10.72 12.992 11.064 12.904 11.416 12.776C11.912 12.6 12.392 12.368 12.856 12.08C13.656 11.552 14.424 11.296 15.16 11.312C15.912 11.328 16.568 11.616 17.128 12.176ZM17.512 18.632C17.544 18.184 17.488 17.576 17.344 16.808C17.216 16.04 17.04 15.336 16.816 14.696C16.576 13.976 16.328 13.488 16.072 13.232C15.464 12.656 14.664 12.696 13.672 13.352C12.856 13.864 12.008 14.224 11.128 14.432C10.664 14.544 10.288 14.6 10 14.6C9.712 14.6 9.336 14.544 8.872 14.432C8.008 14.224 7.168 13.864 6.352 13.352C5.808 13 5.328 12.824 4.912 12.824C4.56 12.824 4.232 12.96 3.928 13.232C3.672 13.488 3.424 13.968 3.184 14.672C2.96 15.328 2.776 16.04 2.632 16.808C2.504 17.56 2.456 18.152 2.488 18.584C2.504 19.16 2.56 19.568 2.656 19.808C2.8 20.208 3.096 20.504 3.544 20.696C4.072 20.936 4.856 21.072 5.896 21.104H14.128C15.152 21.072 15.928 20.936 16.456 20.696C16.904 20.504 17.2 20.208 17.344 19.808C17.44 19.568 17.496 19.176 17.512 18.632Z" fill="#212121"/>
</svg>
