<svg width="60" height="60" viewBox="0 0 60 60" fill="none" xmlns="http://www.w3.org/2000/svg">
<rect width="60" height="60" rx="20" fill="#EEFFEB"/>
<path d="M34.7199 12.1568C34.031 11.831 32.9899 12.0135 32.4523 12.698L16.4435 33.0728C15.8908 33.7765 15.8787 34.7676 16.2743 35.4532C16.67 36.1388 17.5432 36.629 18.4291 36.5024L26.1007 35.4081L23.6638 46.4078C23.4744 47.2585 23.9908 48.1771 24.6792 48.5061C25.3677 48.8354 26.4153 48.658 26.9581 47.9759C26.9659 47.9644 26.9736 47.9529 26.9812 47.9412L42.9335 27.9049C43.4909 27.2046 43.51 26.2176 43.1253 25.5246C42.7406 24.8315 41.8936 24.3275 41.0043 24.4302L33.2876 25.3214L35.7358 14.2541C35.9241 13.4043 35.4089 12.4828 34.7199 12.1568ZM31.6174 18.7001L30.0041 25.9543C29.7003 27.3232 30.9126 28.6643 32.3056 28.504L39.1874 27.7143L27.7591 42.0646L29.3949 34.7089C29.7011 33.3308 28.4571 31.9821 27.0596 32.1818L20.2568 33.152L31.6174 18.7001Z" fill="#169D00"/>
<path d="M25.7588 47.0264L41.7354 26.9589C41.8125 26.8621 41.8592 26.7445 41.8694 26.6212C41.8797 26.4978 41.8531 26.3742 41.793 26.266C41.7329 26.1578 41.6421 26.0698 41.532 26.0132C41.4219 25.9567 41.2975 25.9341 41.1745 25.9483L32.1305 26.9894C32.0388 27 31.9459 26.9885 31.8596 26.9558C31.7732 26.9232 31.696 26.8704 31.6342 26.8018C31.5724 26.7332 31.5279 26.6509 31.5044 26.5616C31.4809 26.4723 31.4791 26.3787 31.4991 26.2886L34.246 13.9235C34.2626 13.8484 34.2533 13.7699 34.2195 13.7009C34.1857 13.6318 34.1294 13.5763 34.0599 13.5434C33.9904 13.5105 33.9118 13.5021 33.8369 13.5198C33.7621 13.5374 33.6955 13.58 33.648 13.6404L17.6473 34.0124C17.5724 34.1077 17.5277 34.2233 17.5191 34.3442C17.5105 34.4651 17.5382 34.5858 17.5988 34.6908C17.6594 34.7957 17.7501 34.8802 17.8591 34.9332C17.9681 34.9862 18.0904 35.0054 18.2104 34.9882L27.2711 33.6934C27.3611 33.6805 27.453 33.6897 27.5388 33.7201C27.6245 33.7505 27.7015 33.8013 27.7633 33.868C27.8251 33.9347 27.8698 34.0155 27.8936 34.1033C27.9174 34.1911 27.9195 34.2833 27.8998 34.3721L25.1529 46.7372C25.136 46.8133 25.1454 46.8928 25.1795 46.9629C25.2136 47.0329 25.2704 47.0893 25.3407 47.1229C25.411 47.1565 25.4906 47.1653 25.5665 47.1478C25.6424 47.1303 25.7103 47.0874 25.7588 47.0264Z" fill="#169D00"/>
</svg>
