<svg width="16" height="15" viewBox="0 0 16 15" fill="none" xmlns="http://www.w3.org/2000/svg">
<path d="M15.328 12.872C15.264 12.52 15.1307 12.2533 14.928 12.072L11.6 8.728C12.0907 7.81067 12.336 6.87733 12.336 5.928C12.336 4.88267 12.0693 3.90667 11.536 3C11.024 2.12533 10.3307 1.432 9.456 0.919999C8.54933 0.397333 7.568 0.136 6.512 0.136C5.46667 0.136 4.496 0.392 3.6 0.903999C2.72533 1.40533 2.032 2.088 1.52 2.952C0.997333 3.848 0.736 4.81867 0.736 5.864C0.736 6.90933 0.997333 7.88533 1.52 8.792C2.032 9.66667 2.72533 10.36 3.6 10.872C4.50667 11.4053 5.48267 11.672 6.528 11.672C7.02933 11.672 7.52 11.608 8 11.48C8.48 11.352 8.92267 11.1707 9.328 10.936L12.672 14.264C12.8107 14.4133 12.9867 14.5253 13.2 14.6L13.248 14.616C13.4933 14.6907 13.68 14.728 13.808 14.728C14.1387 14.728 14.4267 14.6427 14.672 14.472C14.8213 14.344 14.9387 14.2373 15.024 14.152C15.1307 14.024 15.2107 13.8853 15.264 13.736C15.3707 13.4053 15.392 13.1173 15.328 12.872ZM6.528 10.664C5.65333 10.664 4.84267 10.4453 4.096 10.008C3.38133 9.592 2.81067 9.02133 2.384 8.296C1.94667 7.54933 1.728 6.73867 1.728 5.864C1.728 4.98933 1.94667 4.17867 2.384 3.432C2.81067 2.70667 3.38133 2.136 4.096 1.72C4.84267 1.28267 5.65333 1.064 6.528 1.064C7.40267 1.064 8.21333 1.28267 8.96 1.72C9.68533 2.136 10.256 2.70667 10.672 3.432C11.1093 4.17867 11.328 4.98933 11.328 5.864C11.328 6.73867 11.104 7.54933 10.656 8.296C10.2293 9.02133 9.648 9.59733 8.912 10.024C8.176 10.4507 7.38133 10.664 6.528 10.664ZM10.8 11L10.208 10.392L10.48 10.136C10.736 9.89067 10.912 9.70933 11.008 9.592L11.936 10.536L11.136 11.4L10.8 11ZM14.336 13.4C14.2827 13.5173 14.2133 13.608 14.128 13.672C14.1067 13.6933 14.0587 13.7147 13.984 13.736C13.9093 13.7573 13.8507 13.7787 13.808 13.8C13.712 13.8 13.6427 13.7787 13.6 13.736C13.5573 13.736 13.4933 13.6933 13.408 13.608L11.808 12.072L12.608 11.192L14.208 12.792C14.2933 12.8987 14.336 12.9893 14.336 13.064C14.368 13.1387 14.3733 13.2293 14.352 13.336L14.336 13.4Z" fill="#212121"/>
</svg>
