<svg width="161" height="24" viewBox="0 0 161 24" fill="none" xmlns="http://www.w3.org/2000/svg">
<path d="M13 1H9.72727C8.28064 1 6.89325 1.57946 5.87033 2.61091C4.8474 3.64236 4.27273 5.04131 4.27273 6.5V9.8H1V14.2H4.27273V23H8.63636V14.2H11.9091L13 9.8H8.63636V6.5C8.63636 6.20826 8.7513 5.92847 8.95588 5.72218C9.16047 5.51589 9.43795 5.4 9.72727 5.4H13V1Z" stroke="white" stroke-linecap="round" stroke-linejoin="round"/>
<path fill-rule="evenodd" clip-rule="evenodd" d="M42.7619 2.02393C40.1451 2.02393 38.0238 4.14524 38.0238 6.76202V17.2382C38.0238 19.855 40.1451 21.9763 42.7619 21.9763H53.2381C55.8549 21.9763 57.9762 19.855 57.9762 17.2382V6.76202C57.9762 4.14524 55.8549 2.02393 53.2381 2.02393H42.7619ZM37.0238 6.76202C37.0238 3.59296 39.5928 1.02393 42.7619 1.02393H53.2381C56.4072 1.02393 58.9762 3.59296 58.9762 6.76202V17.2382C58.9762 20.4073 56.4072 22.9763 53.2381 22.9763H42.7619C39.5928 22.9763 37.0238 20.4073 37.0238 17.2382V6.76202ZM48.5866 8.30404C47.8188 8.19017 47.0346 8.32133 46.3456 8.67884C45.6566 9.03636 45.0978 9.60203 44.7489 10.2954C44.3999 10.9888 44.2784 11.7745 44.4017 12.5409C44.525 13.3073 44.8869 14.0153 45.4358 14.5642C45.9846 15.113 46.6926 15.4749 47.459 15.5982C48.2254 15.7215 49.0112 15.6 49.7045 15.2511C50.3979 14.9021 50.9636 14.3433 51.3211 13.6543C51.6786 12.9653 51.8097 12.1811 51.6959 11.4133C51.5797 10.63 51.2148 9.90492 50.6549 9.34503C50.095 8.78515 49.3699 8.42018 48.5866 8.30404ZM45.885 7.79122C46.7607 7.33683 47.7574 7.17014 48.7333 7.31485C49.7288 7.46247 50.6504 7.92633 51.362 8.63793C52.0736 9.34952 52.5374 10.2711 52.6851 11.2666C52.8298 12.2425 52.6631 13.2392 52.2087 14.1149C51.7543 14.9906 51.0354 15.7007 50.1541 16.1443C49.2729 16.5878 48.2742 16.7422 47.3001 16.5855C46.3261 16.4288 45.4263 15.9689 44.7287 15.2713C44.031 14.5736 43.5711 13.6738 43.4144 12.6998C43.2577 11.7257 43.4121 10.727 43.8556 9.8458C44.2992 8.96456 45.0093 8.24561 45.885 7.79122ZM53.7619 5.73821C53.4858 5.73821 53.2619 5.96207 53.2619 6.23821C53.2619 6.51435 53.4858 6.73821 53.7619 6.73821H53.7719C54.048 6.73821 54.2719 6.51435 54.2719 6.23821C54.2719 5.96207 54.048 5.73821 53.7719 5.73821H53.7619Z" fill="white"/>
<path d="M111.413 5.13066C111.262 4.5167 110.954 3.95417 110.521 3.49988C110.087 3.04559 109.543 2.71563 108.944 2.54334C106.755 2 97.9995 2 97.9995 2C97.9995 2 89.2435 2 87.0546 2.59508C86.4555 2.76738 85.9117 3.09734 85.4782 3.55163C85.0447 4.00591 84.7368 4.56845 84.5856 5.18241C84.185 7.44056 83.989 9.73132 84.0002 12.0259C83.9859 14.3377 84.1819 16.6459 84.5856 18.9211C84.7523 19.516 85.0671 20.0571 85.4996 20.4922C85.9321 20.9273 86.4676 21.2417 87.0546 21.4049C89.2435 22 97.9995 22 97.9995 22C97.9995 22 106.755 22 108.944 21.4049C109.543 21.2326 110.087 20.9027 110.521 20.4484C110.954 19.9941 111.262 19.4316 111.413 18.8176C111.811 16.5764 112.007 14.3031 111.999 12.0259C112.013 9.71404 111.817 7.40582 111.413 5.13066V5.13066Z" stroke="white" stroke-linecap="round" stroke-linejoin="round"/>
<path d="M95 16L103 12L95 8V16Z" stroke="white" stroke-linecap="round" stroke-linejoin="round"/>
<path fill-rule="evenodd" clip-rule="evenodd" d="M139.048 3.75005C139.048 2.80912 139.807 2.05005 140.738 2.05005C141.67 2.05005 142.429 2.80912 142.429 3.75005C142.429 4.69098 141.67 5.45005 140.738 5.45005C139.807 5.45005 139.048 4.69098 139.048 3.75005ZM140.738 1.05005C139.25 1.05005 138.048 2.26093 138.048 3.75005C138.048 5.23917 139.25 6.45005 140.738 6.45005C142.226 6.45005 143.429 5.23917 143.429 3.75005C143.429 2.26093 142.226 1.05005 140.738 1.05005ZM153.881 8.65005C152.271 8.65005 150.727 9.2922 149.589 10.4359C148.45 11.5797 147.81 13.1315 147.81 14.75V21.9501H151.19V14.75C151.19 14.0347 151.473 13.3481 151.978 12.8416C152.482 12.335 153.167 12.05 153.881 12.05C154.595 12.05 155.28 12.335 155.784 12.8416C156.288 13.3481 156.571 14.0347 156.571 14.75V21.9501H159.952V14.75C159.952 13.1315 159.312 11.5797 158.173 10.4359C157.035 9.2922 155.49 8.65005 153.881 8.65005ZM153.881 7.65005C152.005 7.65005 150.206 8.39861 148.88 9.73036C147.554 11.062 146.81 12.8677 146.81 14.75V22.4501C146.81 22.7262 147.033 22.9501 147.31 22.9501H151.69C151.967 22.9501 152.19 22.7262 152.19 22.4501V14.75C152.19 14.2985 152.369 13.8658 152.686 13.5472C153.004 13.2286 153.433 13.05 153.881 13.05C154.329 13.05 154.758 13.2286 155.076 13.5472C155.393 13.8658 155.571 14.2985 155.571 14.75V22.4501C155.571 22.7262 155.795 22.9501 156.071 22.9501H160.452C160.729 22.9501 160.952 22.7262 160.952 22.4501V14.75C160.952 12.8677 160.208 11.062 158.882 9.73036C157.556 8.39861 155.757 7.65005 153.881 7.65005ZM138.048 9.25005C138.048 8.97391 138.271 8.75005 138.548 8.75005H142.929C143.205 8.75005 143.429 8.97391 143.429 9.25005V22.4501C143.429 22.7262 143.205 22.9501 142.929 22.9501H138.548C138.271 22.9501 138.048 22.7262 138.048 22.4501V9.25005ZM139.048 9.75005V21.9501H142.429V9.75005H139.048Z" fill="white"/>
</svg>
