<svg width="31" height="42" viewBox="0 0 31 42" fill="none" xmlns="http://www.w3.org/2000/svg">
<path d="M29.1084 16.4156H20.3813L28.1033 1.88431C28.3168 1.48323 28.3042 1.01145 28.0704 0.622269C27.8366 0.232388 27.4257 0 26.9714 0H8.80525C8.24528 0 7.75391 0.359082 7.58312 0.894555L0.559666 23.0267C0.436472 23.4152 0.506468 23.8436 0.747256 24.1719C0.988044 24.5002 1.37442 24.6969 1.7825 24.6969H10.9548L7.57472 40.4447C7.44942 41.0242 7.72101 41.5926 8.25018 41.8593C8.43847 41.9538 8.63796 42 8.83395 42C9.19094 42 9.53742 41.8488 9.7894 41.5618L30.0702 18.5456C30.4076 18.1627 30.4874 17.6349 30.2774 17.1701C30.0674 16.7047 29.6194 16.4156 29.1084 16.4156ZM9.03694 40.2963L12.3527 24.8481C12.4346 24.468 12.3408 24.076 12.0965 23.7729C11.8515 23.4698 11.4882 23.2962 11.099 23.2962H1.9421L8.89135 1.39993H26.7755L19.0534 15.9312C18.84 16.3323 18.8526 16.8041 19.0863 17.1932C19.3201 17.5831 19.731 17.8155 20.1853 17.8155H28.8481L9.03694 40.2963Z" fill="#8800EC"/>
</svg>
